<svg xmlns="http://www.w3.org/2000/svg" width="16" height="16" viewBox="0 0 16 16"><path d="M7.15 9.962c.827-.787.866-1.454.827-1.78-.017-.114-.127-.212-.26-.216-.978-.043-1.967.615-2.37 1.7-.402 1.054-.123 2.18.6 2.814a.2.2.0 00.19.032c.056-.025.103-.084.097-.146-.088-1.153.29-1.794.906-2.393h0zM9.15 8.595c-.044-.048-.112-.063-.176-.053-.06.018-.107.07-.11.127-.062.5-.302 1.154-1.03 1.86-.49.47-.873.973-.656 2.305.008.08.092.146.18.15.955-.004 1.88-.657 2.272-1.69.388-.994.163-2.05-.482-2.695h0zm.69-2.197c-.125.284-.053.627.2.832a4.12 4.12.0 011.37 4.396 4.15 4.15.0 01-5.14 2.797c-2.184-.652-3.432-2.958-2.783-5.14.457-1.57 1.792-2.71 3.412-2.927.014.0.028.005.04.005.305.0.587-.2.676-.507L8.805 1.8 11 2.45 9.84 6.398zm2.987-4.877L7.783.03c-.373-.1-.766.102-.876.476s.103.767.477.876l.07.02-1.057 3.606c-2.03.4-3.68 1.874-4.262 3.876-.87 2.925.804 6.018 3.736 6.893.52.15 1.045.224 1.562.224 2.402.0 4.622-1.565 5.33-3.972a5.52 5.52.0 00-1.47-5.569l1.06-3.608.075.023c.067.02.134.028.202.028.304.0.584-.2.675-.505.11-.374-.103-.765-.477-.876h0z" fill="#000" fill-rule="nonzero"/></svg>