<svg xmlns="http://www.w3.org/2000/svg"><defs><font id="SourceSansPro" horiz-adv-x="503"><font-face font-family="Source Sans Pro Light" units-per-em="1e3" panose-1="2 11 4 3 3 4 3 2 2 4" ascent="984" descent="-273" alphabetic="0"/><glyph glyph-name="space" horiz-adv-x="200"/><glyph unicode="!" glyph-name="exclam" horiz-adv-x="259" d="M113 179l-6 420v71h46l-1-71-6-420H113zM130-12q-17 0-30 12T87 33q0 22 13 34t30 12 29-12 13-34q0-21-12-33T130-12z"/><glyph unicode='"' glyph-name="quotedbl" horiz-adv-x="360" d="M92 477 84 624l-1 69h51V624l-9-147H92zm141 0-8 147-1 69h51V624l-9-147H233z"/><glyph unicode="#" glyph-name="numbersign" horiz-adv-x="479" d="M93 0l26 214H36v36h87l21 170H56v36h92l25 194h35L183 456H332l26 194h34L367 456h82V420H364L343 250h86V214H338L313 0H278l25 214H154L128 0H93zm65 250H308l21 170H179L158 250z"/><glyph unicode="$" glyph-name="dollar" horiz-adv-x="479" d="M226-110v99q-52 4-95 26T59 66L83 97q29-26 69-48t92-22q63 0 96 34t34 89q0 49-21 79t-54 52-69 39-70 39-53 53-22 83q0 31 10 58t30 47 45 34 56 16v99h39V650q49-3 80-23t57-47l-26-28q-14 14-27 25t-29 19-33 12-41 4q-52 0-84-32t-32-83q0-44 21-70t54-46 69-36 70-40 53-59 22-93q0-72-43-115T265-11v-99H226z"/><glyph unicode="%" glyph-name="percent" horiz-adv-x="805" d="M181 257q-66 0-103 53T40 465q0 1e2 37 153t104 53q66 0 103-53t38-153q0-101-37-154T181 257zm0 33q47 0 74 45t28 130q0 84-27 128t-75 45q-47 0-74-44T79 465q0-84 27-129t75-46zM198-12 566 671h38L237-12H198zm426 0q-66 0-103 53T483 196q0 1e2 37 153t104 53q66 0 103-53t38-153q0-101-37-154T624-12zm0 33q47 0 74 45t28 130q0 84-27 128t-75 45q-47 0-74-44T522 196q0-84 27-129t75-46z"/><glyph unicode="&amp;" glyph-name="ampersand" horiz-adv-x="575" d="M226-12q-39 0-74 12T92 36 51 93 36 167q0 33 11 60t30 50 43 44 51 40q-20 42-32 83t-12 80q0 32 10 59t28 46 43 31 55 11q54 0 82-34t28-86q0-32-13-59t-34-50-49-45-56-43q35-63 83-122T404 128q35 45 61 99t43 118h43q-20-68-48-129T434 103q35-28 67-46t61-30L547-12Q482 11 406 71q-36-37-80-60T226-12zM168 526q0-33 10-68t27-72q25 18 48 36t41 38 28 41 11 48q0 16-4 31t-12 28-22 19-34 8q-44 0-68-32t-25-77zM230 26q41 0 78 19t68 52q-53 48-102 108T189 329q-22-17-41-35t-35-37-23-41-9-46q0-33 12-59t32-45 47-29 58-11z"/><glyph unicode="'" glyph-name="quotesingle" horiz-adv-x="219" d="M92 477 84 624l-1 69h51V624l-9-147H92z"/><glyph unicode="(" glyph-name="parenleft" horiz-adv-x="279" d="M220-175Q158-75 123 35T88 278q0 132 35 242t97 211l27-16q-60-95-90-206T127 278q0-119 30-230t90-207l-27-16z"/><glyph unicode=")" glyph-name="parenright" horiz-adv-x="279" d="M59-175 32-159Q92-64 122 47t30 231q0 119-30 230T32 715l27 16q61-1e2 96-210t36-243q0-132-35-242T59-175z"/><glyph unicode="*" glyph-name="asterisk" horiz-adv-x="395" d="M132 462l-27 20 55 88-90 36 10 30 94-26 7 102h32l7-1e2 95 24 10-30-90-36 54-88-27-20-64 83-66-83z"/><glyph unicode="+" glyph-name="plus" horiz-adv-x="479" d="M219 110V311H34v38H219V550h41V349H445V311H260V110H219z"/><glyph unicode="," glyph-name="comma" horiz-adv-x="219" d="M62-155 48-125q35 18 56 49T125-4q-4-1-12-1Q96-5 84 6T71 37q0 20 13 31t30 11q23 0 37-19T165 8q0-55-29-97T62-155z"/><glyph unicode="-" glyph-name="hyphen" horiz-adv-x="299" d="M40 230v39H260V230H40z"/><glyph unicode="." glyph-name="period" horiz-adv-x="219" d="M110-12Q93-12 80 0T67 33q0 22 13 34t30 12 29-12 13-34q0-21-12-33T110-12z"/><glyph unicode="/" glyph-name="slash" horiz-adv-x="357" d="M9-160 314 710h38L47-160H9z"/><glyph unicode="0" glyph-name="zero" horiz-adv-x="479" d="M239-12Q147-12 98 74T48 322q0 160 49 244t142 85q92 0 141-84t50-245q0-161-49-247T239-12zm0 38q67 0 106 74t40 222q0 147-39 219T239 613q-66 0-106-72T93 322t40-221T239 26z"/><glyph unicode="1" glyph-name="one" horiz-adv-x="479" d="M84 0V39H234V569H120v30q39 7 69 17t54 23h36V39H418V0H84z"/><glyph unicode="2" glyph-name="two" horiz-adv-x="479" d="M41 0V28q79 80 138 143t98 116 59 97 20 87q0 60-33 101T217 613q-44 0-82-24T68 529L39 557q36 40 79 67t103 27q86 0 133-49t47-130q0-48-21-95T321 277 229 165 108 35q26 2 53 3t54 2H433V0H41z"/><glyph unicode="3" glyph-name="three" horiz-adv-x="479" d="M232-12q-38 0-69 8T108 17 64 46 29 78l26 31Q69 93 86 79t38-26 48-19 60-7q32 0 59 10t48 28 31 45 11 58q0 33-12 60t-39 46-69 31-103 11v39q55 0 93 11t62 29 34 44 11 55q0 54-35 86t-94 33q-45 0-82-20T82 543L56 573q33 32 75 55t98 23q37 0 69-10t55-30 37-48 14-66q0-63-34-101t-88-57v-4q30-6 56-20t46-36 31-48 12-62q0-42-15-75T371 37 309 1 232-12z"/><glyph unicode="4" glyph-name="four" horiz-adv-x="479" d="M310 0V191H16v26L313 639h40V229h95V191H353V0H310zM70 229H310V463q0 22 1 55t3 55h-4q-12-20-25-39t-27-41L70 229z"/><glyph unicode="5" glyph-name="five" horiz-adv-x="479" d="M227-12q-38 0-68 7T104 15 60 43 26 74l25 31Q65 90 82 76t38-25 47-17 59-7q32 0 61 12t50 35 35 54 13 71q0 78-42 121T229 364q-37 0-63-11t-56-32L79 340l23 299H397V6e2H142L122 369q25 15 52 24t62 10q40 0 76-12t62-36 41-63 16-91q0-51-17-90T368 44 303 2 227-12z"/><glyph unicode="6" glyph-name="six" horiz-adv-x="479" d="M261-12q-97 0-153 78T52 290q0 1e2 19 169t52 112 75 61 89 19q45 0 77-17t58-45l-27-30q-21 26-49 39t-59 14q-38 0-72-16t-61-54-41-97T97 297q33 41 74 65t87 24q85 0 131-50t47-148q0-44-14-80T384 45 329 3 261-12zm1 38q28 0 51 12t41 35 27 51 10 64q0 34-8 63t-24 51-43 34-63 12q-34 0-75-21T98 252q3-51 14-92t32-71 49-46 69-17z"/><glyph unicode="7" glyph-name="seven" horiz-adv-x="479" d="M188 0q4 97 16 177t36 152 58 137 83 134H44v39H437V613q-57-76-94-146T283 325 250 173 236 0H188z"/><glyph unicode="8" glyph-name="eight" horiz-adv-x="479" d="M243-12q-44 0-81 13T98 38 56 94 40 164q0 32 11 60t30 50 41 40 46 30v4q-18 12-34 26t-29 33-21 40-8 48q0 34 13 63t35 49 53 32 66 12q41 0 73-12t54-35 34-53 12-67q0-26-9-50t-22-46-30-38-30-28v-4q21-13 41-28t35-34 26-44 10-57q0-35-14-65T384 37 322 1 243-12zm47 347q41 33 62 69t22 79q0 27-9 50t-25 42-41 28-56 11q-27 0-49-9t-39-24-26-38-9-48q0-34 14-58t39-43 54-33 63-26zM243 25q34 0 61 10t47 28 30 42 11 51q0 37-16 62t-44 45-63 34-72 30q-49-29-81-68T84 166q0-30 12-55t33-45 50-30 64-11z"/><glyph unicode="9" glyph-name="nine" horiz-adv-x="479" d="M226 291q35 0 77 23t78 74q-3 51-14 92t-32 71-50 46-69 16q-27 0-51-12t-41-34-27-51-10-64 8-64 25-51 43-34 63-12zM191-12q-45 0-78 17T56 50L83 80q21-26 49-39t60-14q38 0 72 16t61 54 41 97 16 148q-33-40-75-64t-87-24q-84 0-130 50T43 452q0 43 14 80t38 63 55 41 68 15q96 0 152-77t56-224q0-101-19-170T355 69 280 7 191-12z"/><glyph unicode=":" glyph-name="colon" horiz-adv-x="219" d="M110 370q-17 0-30 12T67 415q0 22 13 34t30 12 29-12 13-34q0-21-12-33t-30-12zm0-382Q93-12 80 0T67 33q0 22 13 34t30 12 29-12 13-34q0-21-12-33T110-12z"/><glyph unicode=";" glyph-name="semicolon" horiz-adv-x="219" d="M110 370q-17 0-30 12T67 415q0 22 13 34t30 12 29-12 13-34q0-21-12-33t-30-12zM62-155 48-125q35 18 56 49T125-4q-4-1-12-1Q96-5 84 6T71 37q0 20 13 31t30 11q23 0 37-19T165 8q0-55-29-97T62-155z"/><glyph unicode="&lt;" glyph-name="less" horiz-adv-x="479" d="M445 146 34 310v44L445 518V475L213 385 80 334v-4l133-51 232-90V146z"/><glyph unicode="=" glyph-name="equal" horiz-adv-x="479" d="M34 413v38H445V413H34zm0 53v38H445V466H34z"/><glyph unicode=">" glyph-name="greater" horiz-adv-x="479" d="M34 146v43l232 90 133 51v4L266 385 34 475v43L445 354V310L34 146z"/><glyph unicode="?" glyph-name="question" horiz-adv-x="402" d="M163 179q-6 41 2 74t25 62 36 54 38 49 30 51 12 57q0 23-6 44t-21 38-35 25-51 10q-37 0-70-16T64 579L37 604q29 33 68 55t92 23q36 0 65-11t49-32 30-49 11-61q0-34-12-62t-31-55-38-51-37-53-26-59-5-70H163zM186-12q-17 0-29 12T144 33q0 22 12 34t30 12q17 0 30-12t13-34q0-21-13-33T186-12z"/><glyph unicode="@" glyph-name="at" horiz-adv-x="814" d="M388-146q-72 0-133 23T148-55 78 54 52 202q0 98 32 177t87 136 127 87 151 31q72 0 130-23t99-64 63-1e2 22-130q0-64-17-112t-44-82-59-49-64-17q-40 0-66 18t-31 58h-2q-26-29-56-49T358 62q-23 0-44 8T278 96t-25 42-9 60q0 36 12 76t37 73 58 54 79 22q53 0 83-48h2l9 40h34L522 226Q488 91 582 91q24 0 49 15t46 43 34 70 14 94q0 64-19 117t-56 90-87 57-117 21q-69 0-133-28T2e2 491 120 367 90 205q0-73 22-131t61-99 95-63 123-22q50 0 91 13t77 35l16-30q-86-54-187-54zM364 98q50 0 108 67l31 173q-18 28-34 38t-40 11q-34 0-61-17t-45-45-29-60-10-64q0-57 23-80t57-23z"/><glyph unicode="A" glyph-name="A" horiz-adv-x="526" d="M188 388 146 265H380L338 388q-20 59-38 113T265 616h-4q-17-61-35-115T188 388zM8 0 240 659h46L518 0H470L393 226H132L54 0H8z"/><glyph unicode="B" glyph-name="B" horiz-adv-x="578" d="M97 0V659H275q1e2.0 159-38t59-122q0-52-26-90t-76-54v-4q64-11 103-50t39-109q0-48-17-84T466 48 389 12 288 0H97zm46 369H257q101 0 145 33t45 92q0 70-47 98T262 621H143V369zm0-331H276q99 0 155 37t57 116q0 72-55 106T276 331H143V38z"/><glyph unicode="C" glyph-name="C" horiz-adv-x="564" d="M331-12q-61 0-112 24T132 80 75 188 55 331q0 78 20 141t58 107 88 68 115 24q58 0 102-24t70-55l-27-31q-27 31-63 49t-81 19q-54 0-97-21t-74-59-47-94-16-124q0-69 16-124t46-95 72-60 96-22q51 0 91 20t76 61l27-29q-38-44-85-69T331-12z"/><glyph unicode="D" glyph-name="D" horiz-adv-x="604" d="M97 0V659H250q76 0 132-23t94-66 55-103 18-135q0-75-18-136T476 91 383 24 251 0H97zm46 39H245q67 0 115 21t80 61 46 92 15 119q0 64-15 117t-46 91-79 59-116 21H143V39z"/><glyph unicode="E" glyph-name="E" horiz-adv-x="515" d="M97 0V659H458V619H143V370H407V330H143V40H468V0H97z"/><glyph unicode="F" glyph-name="F" horiz-adv-x="477" d="M97 0V659H456V619H143V357H408V317H143V0H97z"/><glyph unicode="G" glyph-name="G" horiz-adv-x="605" d="M338-12q-64 0-116 24T133 80 76 188 55 331q0 78 21 141t59 107 92 68 119 24q33 0 60-7t50-18 39-26 31-28l-27-31q-26 28-62 48t-90 20q-57 0-102-21t-76-59-49-94-17-124q0-69 16-124t46-95 75-60T341 30q45 0 84 13t64 37V285H331v39H533V63Q502 30 453 9T338-12z"/><glyph unicode="H" glyph-name="H" horiz-adv-x="639" d="M97 0V659h46V370H496V659h46V0H496V330H143V0H97z"/><glyph unicode="I" glyph-name="I" horiz-adv-x="240" d="M97 0V659h46V0H97z"/><glyph unicode="J" glyph-name="J" horiz-adv-x="462" d="M203-12q-55 0-96 25T41 85l35 23q24-42 54-60t73-18q60 0 89 36t29 118V659h46V179q0-40-9-74T330 44 279 3 203-12z"/><glyph unicode="K" glyph-name="K" horiz-adv-x="558" d="M97 0V659h46V293h2L464 659h55L309 415 548 0H495L277 380 143 227V0H97z"/><glyph unicode="L" glyph-name="L" horiz-adv-x="467" d="M97 0V659h46V40H447V0H97z"/><glyph unicode="M" glyph-name="M" horiz-adv-x="706" d="M97 0V659h65L3e2 272q13-36 26-72t26-74h4q13 37 25 73t25 73L543 659h66V0H564V433q0 41 2 88t4 90h-4L515 464 373 72H333L190 464 138 611h-4q2-42 4-89t2-89V0H97z"/><glyph unicode="N" glyph-name="N" horiz-adv-x="636" d="M97 0V659h48L423 194 497 63h4q-2 48-4 96t-2 96V659h44V0H491L213 465 139 596h-4q2-48 4-93t2-94V0H97z"/><glyph unicode="O" glyph-name="O" horiz-adv-x="652" d="M326-12q-59 0-109 24T131 82 75 190 55 332q0 78 20 140t56 107 86 68 109 24q60 0 110-23t86-68 56-107 20-141q0-78-20-141T522 82 436 13 326-12zm0 42q50 0 91 21t70 61 46 95 16 125q0 68-16 123t-45 93-71 60-91 21q-50 0-91-21t-71-59-45-94-16-123q0-69 16-124t45-95 70-61 92-22z"/><glyph unicode="P" glyph-name="P" horiz-adv-x="549" d="M97 0V659H263q56 0 1e2-9t75-32 47-57 17-86q0-97-62-144T267 283H143V0H97zm46 322H256q101 0 150 36t49 117q0 83-50 114T252 620H143V322z"/><glyph unicode="Q" glyph-name="Q" horiz-adv-x="652" d="M326 27q50 0 91 22t70 61 46 96 16 126q0 68-16 123t-45 93-71 60-91 21q-50 0-91-21t-71-59-45-94-16-123q0-69 16-125t45-96 70-62 92-22zM519-156q-42 0-76 11t-62 30-48 46-33 58q-54 5-99 31T124 91 73 197 55 332q0 78 20 140t56 107 86 68 109 24q60 0 110-23t86-68 56-107 20-141q0-74-18-135T530 92 452 21 351-11q23-50 66-76t106-26q23 0 38 2t29 6l10-39q-13-4-34-8t-47-4z"/><glyph unicode="R" glyph-name="R" horiz-adv-x="544" d="M97 0V659H286q49 0 89-9t68-31 43-54 16-80q0-79-45-124T333 306L515 0H462L283 303H143V0H97zm46 341H274q88 0 134 35t47 109q0 74-47 104T274 620H143V341z"/><glyph unicode="S" glyph-name="S" horiz-adv-x="521" d="M269-12q-72 0-128 27T46 87l30 32q36-41 86-65T269 30q76 0 120 36t44 96q0 31-9 52t-26 37-37 27-46 22L215 345q-21 9-45 22t-43 32-33 46-13 64q0 36 14 65t40 51 61 34 77 12q60 0 106-23t77-56l-26-30q-29 30-68 48t-89 19q-66 0-106-32t-40-86q0-29 11-49t28-34 37-25 38-19l1e2-44q28-12 53-27t44-35 30-47 12-66q0-38-15-70T423 39 356 2 269-12z"/><glyph unicode="T" glyph-name="T" horiz-adv-x="524" d="M239 0V619H29v40H495V619H285V0H239z"/><glyph unicode="U" glyph-name="U" horiz-adv-x="634" d="M316-12q-42 0-82 12T163 43t-49 82T95 253V659h46V258q0-66 14-109t39-70 55-38 67-11q36 0 68 11t57 37 40 70 15 110V659h43V253q0-77-19-128T470 44 399 1 316-12z"/><glyph unicode="V" glyph-name="V" horiz-adv-x="491" d="M222 0 4 659H53L175 274q19-60 34-110T245 53h4q10 30 18 57t17 53 16 54 18 57L440 659h47L271 0H222z"/><glyph unicode="W" glyph-name="W" horiz-adv-x="770" d="M178 0 28 659H76l83-388q11-54 22-107T204 56h4q12 54 24 107t27 108L362 659h47L512 271q14-54 26-107T565 56h4q11 54 21 107t22 108l83 388h45L593 0H542L422 452q-9 39-18 74t-17 75h-4q-8-39-18-74t-19-75L228 0H178z"/><glyph unicode="X" glyph-name="X" horiz-adv-x="482" d="M17 0 215 341 31 659H81L189 465q14-23 25-43t29-47h4q14 27 24 47t25 43L404 659h47L267 339 465 0H415L3e2 202q-14 25-28 50t-33 55h-4q-16-30-29-55t-27-50L64 0H17z"/><glyph unicode="Y" glyph-name="Y" horiz-adv-x="447" d="M2e2.0V267L3 659H52L152 453q17-36 33-71t37-71h4q19 36 37 71t34 71L397 659h47L246 267V0H2e2z"/><glyph unicode="Z" glyph-name="Z" horiz-adv-x="538" d="M50 0V27L429 619H83v40H487V632L107 40H490V0H50z"/><glyph unicode="[" glyph-name="bracketleft" horiz-adv-x="279" d="M98-152V708H258V679H133V-123H258v-29H98z"/><glyph unicode="\" glyph-name="backslash" horiz-adv-x="357" d="M311-160 5 710H43L349-160H311z"/><glyph unicode="]" glyph-name="bracketright" horiz-adv-x="279" d="M21-152v29H146V679H21v29H181V-152H21z"/><glyph unicode="^" glyph-name="asciicircum" horiz-adv-x="479" d="M66 290 216 670h46L413 290H370L293 493 241 626h-4L186 493 109 290H66z"/><glyph unicode="_" glyph-name="underscore" horiz-adv-x="500" d="M12-117v38H488v-38H12z"/><glyph unicode="`" glyph-name="grave" horiz-adv-x="535" d="M296 574 152 725l34 29L320 597l-24-23z"/><glyph unicode="a" glyph-name="a" horiz-adv-x="491" d="M197-12q-29 0-54 8T99 20 69 61 58 120q0 80 74 121t236 60q0 27-4 54t-17 49-35 35-58 14q-48 0-88-19t-65-37L81 430q13 9 31 20t42 20 50 15 56 7q42 0 71-14t47-40 26-58 8-73V0H374l-4 62h-3q-37-29-79-51T197-12zm8 38q42 0 80 20t83 58V267q-74-9-125-22t-82-31-44-41-14-51q0-26 8-44t22-29 32-17 40-6z"/><glyph unicode="b" glyph-name="b" horiz-adv-x="542" d="M280-12q-35 0-72 16T136 49h-2L129 0H92V719h44V511l-2-94q37 31 79 53t87 22q96 0 144-66t48-179q0-61-17-109T429 57 361 6 280-12zm-2 39q36 0 67 16t53 45 34 69 13 90q0 44-8 82t-27 65-47 43-70 16q-36 0-75-20t-82-59V89q40-34 77-48t65-14z"/><glyph unicode="c" glyph-name="c" horiz-adv-x="449" d="M270-12q-47 0-86 17T115 54 69 132 52 239q0 60 18 107t48 80 69 49 84 17q50 0 83-18t58-41l-26-31q-23 22-51 36t-63 15q-37 0-68-15t-55-44-37-68-14-87q0-47 12-86t35-67 55-43 72-16q38 0 70 16t58 39l23-31Q392 24 354 6T270-12z"/><glyph unicode="d" glyph-name="d" horiz-adv-x="544" d="M251-12q-91 0-145 64T52 239q0 58 17 105t46 80 68 50 82 18q44 0 76-15t69-44l-2 88V719h44V0H414l-4 62h-3q-29-29-68-51T251-12zm6 39q40 0 76 20t75 59V391q-38 34-71 48t-69 14-67-16-53-45-36-68-13-85q0-48 10-87t31-66 49-43 68-16z"/><glyph unicode="e" glyph-name="e" horiz-adv-x="483" d="M274-12q-46 0-86 17T117 54 70 133 52 239q0 59 17 106t47 79 67 50 78 18q86 0 135-58t49-164q0-9 0-18t-2-18H97q1-45 14-83t36-66 57-43 74-16q39 0 70 11t59 32l18-34Q396 18 362 3T274-12zM97 270H403q0 93-38 138T262 454q-31 0-59-12t-50-37-37-58-19-77z"/><glyph unicode="f" glyph-name="f" horiz-adv-x="263" d="M99 0V442H33v34l66 4V587q0 72 31 108t88 36q35 0 70-16l-12-36q-15 8-29 11t-29 3q-38 0-56-28t-19-81V480H254V442H143V0H99z"/><glyph unicode="g" glyph-name="g" horiz-adv-x="487" d="M249-231q-91 0-144 36T52-98q0 32 19 62t52 54v4Q105 33 93 52T81 99q0 32 18 54t34 34v4q-23 20-41 54T73 323q0 37 13 68t36 53 54 35 66 13q20 0 36-3t27-9H468V443H356q23-20 38-51t15-70q0-37-13-68t-35-53-53-35-66-13q-20 0-41 5t-39 15q-16-13-27-29t-12-40q0-26 19-44t73-19H318q81 0 119-26t39-84q0-31-16-60t-45-52-72-36-94-14zm-7 419q25 0 47 9t40 28 27 43 10 55q0 30-10 55t-26 42-40 26-48 10q-26 0-48-9t-40-27-27-41-10-56q0-30 10-55t27-43 40-27 48-10zm12-383q40 0 73 10t56 28 35 38 13 45q0 40-28 56T320-1H217q-8 0-24 1T157 7q-33-23-48-49T94-94q0-45 41-73t119-28z"/><glyph unicode="h" glyph-name="h" horiz-adv-x="528" d="M92 0V719h44V405q38 38 77 62t89 25q75 0 110-45t35-139V0H403V302q0 77-25 113t-85 37q-43 0-78-22t-79-68V0H92z"/><glyph unicode="i" glyph-name="i" horiz-adv-x="229" d="M92 0V480h44V0H92zm23 596q-17 0-28 11T75 635q0 19 11 29t29 11q17 0 28-10t12-30q0-17-11-28t-29-11z"/><glyph unicode="j" glyph-name="j" horiz-adv-x="229" d="M29-229q-17 0-34 3t-28 9l11 36q9-3 22-6t28-4q40 0 52 29T92-86V480h45V-89q0-71-26-105T29-229zm86 825q-16 0-28 11T75 635q0 19 12 29t28 11q17 0 29-10t12-30q0-17-12-28t-29-11z"/><glyph unicode="k" glyph-name="k" horiz-adv-x="464" d="M92 0V719h44V189h2L375 480h51L270 290 452 0H403L244 257 136 131V0H92z"/><glyph unicode="l" glyph-name="l" horiz-adv-x="237" d="M151-12 92 64V719h44V58q0-16 6-23t15-8q3 0 6 0t12 2l8-36q-7-2-14-3t-18-2z"/><glyph unicode="m" glyph-name="m" horiz-adv-x="812" d="M92 0V480h38l4-74h3q32 37 71 61t80 25q58 0 89-26t44-72q42 45 81 71t82 27L728 308V0H683V302q0 77-26 113t-81 37q-65 0-144-90V0H388V302q0 77-26 113t-82 37q-65 0-144-90V0H92z"/><glyph unicode="n" glyph-name="n" horiz-adv-x="532" d="M92 0V480h38l4-74h3q37 37 76 61t89 25q75 0 110-45t35-139V0H403V302q0 77-25 113t-85 37q-43 0-78-22t-79-68V0H92z"/><glyph unicode="o" glyph-name="o" horiz-adv-x="535" d="M267-12q-43 0-82 17T117 54 70 132 52 239q0 60 17 107t47 80 69 49 82 17q43 0 82-17t69-49 47-79 18-108q0-60-17-106T419 54 350 5 267-12zm0 39q36 0 67 15t54 44 36 67 13 86-13 87-35 67-54 44-68 16-67-15-53-44-36-68-13-87q0-47 13-86t35-67 54-43 67-16z"/><glyph unicode="p" glyph-name="p" horiz-adv-x="544" d="M92-217V480h38l4-60h3q35 28 76 50t87 22q96 0 144-66t48-179q0-61-17-109T429 57 361 6 280-12q-34 0-70 15T136 47V-217H92zM278 27q36 0 67 16t53 45 34 69 13 90q0 44-8 82t-27 65-47 43-70 16q-36 0-74-20t-83-59V89q42-34 78-48t64-14z"/><glyph unicode="q" glyph-name="q" horiz-adv-x="544" d="M408-217V-32l2 95q-32-31-71-53T251-12q-91 0-145 64T52 239q0 58 17 105t46 80 68 50 82 18q44 0 76-15t67-41h2l5 44h37V-217H408zM257 27q40 0 76 20t75 59V391q-38 34-71 48t-69 14-67-16-53-45-36-68-13-85q0-48 10-87t31-66 49-43 68-16z"/><glyph unicode="r" glyph-name="r" horiz-adv-x="317" d="M92 0V480h38l4-89h3q24 45 58 73t78 28q14 0 25-2t23-8l-10-40q-12 5-21 6t-23 2q-32 0-67-27t-64-96V0H92z"/><glyph unicode="s" glyph-name="s" horiz-adv-x="405" d="M208-12q-54 0-99 19T32 54L58 87q31-26 66-43t87-18q57 0 85 28t29 67q0 22-10 39t-28 29-37 21-42 17q-27 10-54 21t-50 26-35 37-14 53q0 26 10 49t30 41 48 28 67 10q38 0 74-14t63-36l-24-31q-24 18-51 30t-64 13q-28 0-48-7t-33-20-20-28-7-32q0-21 9-35t26-26 36-19 42-17q28-11 56-22t50-27 37-39 14-59q0-27-10-51T328 29 277-1 208-12z"/><glyph unicode="t" glyph-name="t" horiz-adv-x="312" d="M223-12q-35 0-58 10T128 28 109 74t-6 59V442H28v34l76 4 6 139h38V480H287V442H148V129q0-23 3-41t13-32 24-21 41-8q14 0 30 4t30 11L301 6Q280-2 259-7t-36-5z"/><glyph unicode="u" glyph-name="u" horiz-adv-x="529" d="M230-12q-75 0-110 45T85 172V480h44V178q0-77 25-113t84-37q43 0 78 23t77 75V480h44V0H4e2l-5 80h-2q-35-42-74-67T230-12z"/><glyph unicode="v" glyph-name="v" horiz-adv-x="434" d="M192 0 12 480H60L168 179q11-35 24-70t24-68h4q12 33 24 68t25 70L377 480h45L244 0H192z"/><glyph unicode="w" glyph-name="w" horiz-adv-x="685" d="M166 0 24 480H72l86-311q9-33 17-64t16-64h4q8 32 17 63t18 65l87 311h53l87-311q9-33 18-64t18-64h4q8 32 17 63t17 65l85 311h45L523 0H465L381 298q-11 35-18 68t-19 69h-4q-8-35-17-69t-21-70L219 0H166z"/><glyph unicode="x" glyph-name="x" horiz-adv-x="407" d="M14 0 177 251 27 480H76l78-122q12-20 24-39t27-40h4q13 20 24 39t25 40l75 122h46L230 247 393 0H344L259 131q-14 23-28 45t-29 43h-4q-14-21-27-43t-28-45L61 0H14z"/><glyph unicode="y" glyph-name="y" horiz-adv-x="436" d="M73-219q-27 0-49 10l10 39q8-3 18-5t21-3q45 0 75 36t48 91L209-9 12 480H60L176 178q11-30 24-66t28-68h4q11 32 22 68t22 66L379 480h45L234-60q-10-30-24-59t-34-51-45-35-58-14z"/><glyph unicode="z" glyph-name="z" horiz-adv-x="404" d="M27 0V24L311 442H58v38H368V457L85 39H378V0H27z"/><glyph unicode="{" glyph-name="braceleft" horiz-adv-x="279" d="M224-152q-28 0-48 6t-35 20-21 39-7 63q0 56 4 104t4 101q0 15-3 30t-13 26-27 18-43 7v32q26 0 43 7t26 18 13 25 4 29q0 54-4 102t-4 105q0 38 7 62t21 39 34 21 49 6h34V679H227q-46 0-61-25t-16-78q0-49 3-93t3-99q0-45-10-70t-41-34v-4q30-9 40-35t11-69q0-54-3-98t-3-94q0-53 15-78t62-25h31v-29H224z"/><glyph unicode="|" glyph-name="bar" horiz-adv-x="226" d="M95-250V750h36V-250H95z"/><glyph unicode="}" glyph-name="braceright" horiz-adv-x="279" d="M21-152v29H52q46 0 61 25t16 78q0 49-3 93t-3 99q0 43 11 69t40 35v4q-29 9-40 34t-11 70q0 54 3 98t3 94q0 53-15 78T52 679H21v29H55q28 0 48-6t35-20 21-39 7-63q0-56-4-104t-4-103q0-15 3-29t13-25 27-18 43-7V262q-26 0-43-7t-26-18-13-26-4-30q0-52 4-1e2t4-105q0-38-7-62t-21-39-34-21-49-6H21z"/><glyph unicode="~" glyph-name="asciitilde" horiz-adv-x="479" d="M329 266q-29 0-52 14t-45 31-42 31-42 14q-23 0-42-14T69 293L40 311q22 42 51 62t59 21q29 0 52-14t45-31 42-31 42-14q23 0 42 14t37 49l28-20q-21-41-50-61t-59-20z"/><glyph unicode="&#160;" glyph-name="uni00A0" horiz-adv-x="199"/><glyph unicode="&#161;" glyph-name="exclamdown" horiz-adv-x="259" d="M107-190v71l6 420h33l6-420 1-71H107zm23 591q-17 0-30 12T87 448q0 20 13 32t30 12 29-12 13-32q0-23-12-35t-30-12z"/><glyph unicode="&#162;" glyph-name="cent" horiz-adv-x="479" d="M107 311q0-78 39-129t109-61V502q-32-5-59-21t-47-40-31-58-11-72zM255-28V81q-42 4-77 21t-61 46-40 71-15 92q0 52 15 92t41 70 62 47 75 21V652h34V543q48-2 80-19t55-41l-24-28q-23 21-51 35t-60 14V119q37 2 68 17t55 37l23-29q-29-27-65-44T289 80V-28H255z"/><glyph unicode="&#163;" glyph-name="sterling" horiz-adv-x="479" d="M57 0V27q56 32 81 84t25 110q0 19-2 37t-7 35H54v33l66 3h24q-11 38-21 75t-11 77q0 79 45 124t125 46q52 0 86-21t58-50l-29-27q-21 25-48 42t-67 17q-31 0-54-10t-39-28-24-42-8-51q0-40 10-76t22-76H354V293H197q4-17 6-34t2-38q0-62-19-103T133 44V40H428V0H57z"/><glyph unicode="&#164;" glyph-name="currency" horiz-adv-x="479" d="M57 114 31 142l65 67q-18 24-28 54T58 328q0 37 10 67t28 55L31 518l26 28 66-69q23 21 53 32t63 12q32 0 62-11t54-33l67 69 26-28-66-68q18-24 28-54t10-68q0-35-10-65t-27-54l65-67-26-28-67 68q-23-22-53-33t-63-12q-66 0-116 45L57 114zm182 60q28 0 53 11t43 32 30 48 11 63q0 34-11 63t-29 49-44 32-53 12q-28 0-53-11t-43-32-30-50-11-63q0-34 11-62t29-49 44-31 53-12z"/><glyph unicode="&#165;" glyph-name="yen" horiz-adv-x="479" d="M216 0V165H50v34H216v71H50v33H202L30 639H78l94-193q16-33 32-66t34-71h4q19 37 34 70t33 67l94 193h46L275 303H429V270H261V199H429V165H261V0H216z"/><glyph unicode="&#166;" glyph-name="brokenbar" horiz-adv-x="226" d="M95 279V750h36V279H95zm0-529V220h36V-250H95z"/><glyph unicode="&#167;" glyph-name="section" horiz-adv-x="479" d="M92 355q0-39 22-63t56-42 72-33 70-36q36 17 55 38t20 62q0 40-22 65t-56 44-72 33-69 36q-34-20-55-43T92 355zM233-52q-52 0-92 17T72 11l30 28q26-24 55-39t76-15q46 0 73 25t27 60q0 34-21 55t-52 38-68 30-68 35-53 49-21 75q0 48 25 79t64 52q-15 15-24 35t-9 46q0 21 8 42t25 37 42 27 60 11q42 0 77-15t63-38l-24-31q-24 20-50 33t-65 13q-25 0-43-6t-29-17-16-25-6-28q0-33 21-53t52-37 67-31 68-35 52-51 21-76q0-50-24-78t-63-50q16-16 25-36t9-48q0-27-11-50T334-17 288-43t-55-9z"/><glyph unicode="&#168;" glyph-name="dieresis" horiz-adv-x="535" d="M178 598q-16 0-26 10t-11 27q0 16 10 26t27 11q16 0 26-10t11-27q0-16-10-26t-27-11zm178 0q-16 0-26 10t-11 27q0 16 10 26t27 11q16 0 26-10t11-27q0-16-10-26t-27-11z"/><glyph unicode="&#169;" glyph-name="copyright" horiz-adv-x="741" d="M371-12q-65 0-123 24T146 79 77 184 51 322q0 75 25 136t70 104 102 66 123 24q64 0 122-23t102-67 69-104 26-136q0-76-25-137T595 80 493 12 371-12zm0 31q57 0 108 22t91 61 62 96 23 124q0 67-23 122t-62 95-90 61-109 22q-58 0-109-21t-91-61-62-95T86 322q0-68 23-124t62-95 90-62T371 19zm5 105q-36 0-67 13t-56 39-38 62-14 84q0 43 15 78t39 59 57 37 69 13q40 0 68-15t52-40l-23-26q-23 22-45 33t-53 11q-60 0-98-41T244 322q0-75 36-118t98-43q36 0 64 14t51 36l20-28q-27-24-58-41t-79-18z"/><glyph unicode="&#170;" glyph-name="ordfeminine" horiz-adv-x="337" d="M139 398q-43 0-70 23T42 489q0 53 49 80t157 38q0 19-3 36t-12 29-21 20-34 7q-30 0-60-12T71 662L56 689q20 13 53 27t73 15q58 0 80-34t23-91V406H255l-6 39h-4q-21-18-47-32t-59-15zm9 32q48 0 1e2 49V581q-93-11-130-33T81 492q0-32 18-47t49-15z"/><glyph unicode="&#171;" glyph-name="guillemotleft" horiz-adv-x="400" d="M180 72 43 233v38L180 432l25-21L82 252 205 91 180 72zm141 0L184 233v38L321 432l25-21L223 252 346 91 321 72z"/><glyph unicode="&#172;" glyph-name="logicalnot" horiz-adv-x="479" d="M404 110V311H34v38H445V110H404z"/><glyph unicode="&#173;" glyph-name="uni00AD" horiz-adv-x="299" d="M40 230v39H260V230H40z"/><glyph unicode="&#174;" glyph-name="registered" horiz-adv-x="401" d="M2e2 324q-37 0-70 14T72 377 33 437 18 517q0 44 14 80t40 61 58 40 70 14q37 0 70-14t58-39 39-62 15-80q0-44-14-79t-39-61-58-39-71-14zm0 29q31 0 59 12t48 34 32 52 12 66-12 66-32 53-48 35-59 13q-32 0-59-12T93 637 61 584 49 517q0-36 12-66t32-51 47-34 60-13zm-68 65V624h69q15 0 28-3t25-10 17-20 7-31q0-19-11-35t-29-21l49-86H250l-39 76H164V418H132zm32 103h29q23 0 37 8t14 29q0 17-10 27t-38 11H164V521z"/><glyph unicode="&#175;" glyph-name="overscore" horiz-adv-x="535" d="M144 606v36H390V606H144z"/><glyph unicode="&#176;" glyph-name="degree" horiz-adv-x="311" d="M156 447q-22 0-42 8T77 478 52 515 42 565q0 28 9 50t26 37 36 24 43 8q22 0 42-8t37-23 25-38 10-50q0-28-9-50t-26-37-36-23-43-8zm0 32q35 0 57 24t23 62q0 38-22 63t-58 25q-35 0-57-25T76 565q0-37 22-61t58-25z"/><glyph unicode="&#177;" glyph-name="plusminus" horiz-adv-x="479" d="M219 109V310H34v37H219V550h41V347H445V310H260V109H219zM34 0V37H445V0H34z"/><glyph unicode="&#178;" glyph-name="two.sups" horiz-adv-x="362" d="M56 406v25q50 46 86 82t60 65 35 53 12 50q0 43-23 68t-63 25q-27 0-50-18T72 712L47 735q18 30 50 51t70 22q54 0 87-30t34-93q0-31-12-59t-35-57-53-60-69-69H311V406H56z"/><glyph unicode="&#179;" glyph-name="three.sups" horiz-adv-x="362" d="M177 394q-46 0-81 22T40 469l29 22q18-29 46-46t63-18q37 0 64 21t27 62q0 38-37 59T131 590v28q59 0 90 25t32 59q0 32-22 52t-61 21q-23 0-46-14T81 723L56 745q21 27 50 45t68 18q49 0 83-27t35-76q0-37-21-61t-54-38q18-3 34-11t29-20 20-28 8-38q0-27-10-48t-28-36-42-23-51-8z"/><glyph unicode="&#180;" glyph-name="acute" horiz-adv-x="535" d="M238 574l-24 23L348 754l34-29L238 574z"/><glyph unicode="&#181;" glyph-name="uni00B5" horiz-adv-x="543" d="M92-180V480h44V178q0-72 24-111t82-39q19 0 37 3t38 15 39 34 41 59V480h44q-1-106-2-209T438 64q0-19 8-28t22-9q11 0 28 6l8-36q-8-4-18-6t-24-3q-35 0-49 23T399 89h-3q-31-52-69-76T245-11q-37 0-65 11T132 49q0-41 0-70t0-55 2-49 3-55H92z"/><glyph unicode="&#182;" glyph-name="paragraph" horiz-adv-x="515" d="M373-80V659h46V-80H373zM291 244q-55 0-101 11t-79 36-51 64-18 96q0 56 17 95t48 65 74 36 94 12h44V244H291z"/><glyph unicode="&#183;" glyph-name="middot" horiz-adv-x="219" d="M110 277q-17 0-30 12T67 322q0 22 13 34t30 12 29-12 13-34q0-21-12-33t-30-12z"/><glyph unicode="&#184;" glyph-name="cedilla" horiz-adv-x="535" d="M199-219l-7 30q65 4 89 17t24 36q0 22-18 33T227-85L268 2h35L273-65q32-8 51-23t20-46q0-39-37-59T199-219z"/><glyph unicode="&#185;" glyph-name="one.sups" horiz-adv-x="362" d="M176 406V730H94v27q29 6 49 15t38 24h33V406H176z"/><glyph unicode="&#186;" glyph-name="ordmasculine" horiz-adv-x="360" d="M179 398q-30 0-57 11T76 442 45 495 33 565q0 40 11 71t31 52 47 32 57 11 57-11 46-32 31-52 12-71q0-39-11-70t-31-52-47-33-57-12zm0 33q49 0 78 37t29 97-29 97-78 37q-48 0-77-37T72 565q0-60 29-97t78-37z"/><glyph unicode="&#187;" glyph-name="guillemotright" horiz-adv-x="400" d="M78 72 54 91 176 252 54 411l24 21L216 271V233L78 72zm141 0-24 19L317 252 195 411l24 21L357 271V233L219 72z"/><glyph unicode="&#188;" glyph-name="onequarter" horiz-adv-x="764" d="M156 269V593H74v27q29 6 49 15t38 24h33V269H156zM177-12 545 671h38L216-12H177zM625 0V114H448v21L625 390h36V146h58V114H661V0H625zM496 146H625v87l4 104h-4l-56-83-73-108z"/><glyph unicode="&#189;" glyph-name="onehalf" horiz-adv-x="786" d="M156 269V593H74v27q29 6 49 15t38 24h33V269H156zM154-12 522 671h38L193-12H154zM480 0V25q50 46 86 82t60 65 35 53 12 50q0 43-23 68t-63 25q-27 0-50-18t-41-44l-25 23q18 30 50 51t70 22q54 0 87-30t34-93q0-31-12-59t-35-57-53-60-69-69H735V0H480z"/><glyph unicode="&#190;" glyph-name="threequarters" horiz-adv-x="783" d="M177 257q-46 0-81 22T40 332l29 22q18-29 46-46t63-18q37 0 64 21t27 62q0 38-37 59T131 453v28q59 0 90 25t32 59q0 32-22 52t-61 21q-23 0-46-14T81 586L56 608q21 27 50 45t68 18q49 0 83-27t35-76q0-37-21-61t-54-38q18-3 34-11t29-20 20-28 8-38q0-27-10-48t-28-36-42-23-51-8zM224-12 592 671h38L263-12H224zM644 0V114H467v21L644 390h36V146h58V114H680V0H644zM515 146H644v87l4 104h-4l-56-83-73-108z"/><glyph unicode="&#191;" glyph-name="questiondown" horiz-adv-x="402" d="M206-202q-37 0-65 11T92-159 62-110 51-49q0 34 12 62T94 68t38 52 37 52 26 59 4 70h41q5-41-3-74t-25-62-36-54-38-49-30-51T96-46q0-23 6-44t21-37 35-26 52-10q36 0 69 17t59 47l28-25q-29-32-68-55t-92-23zm10 603q-17 0-29 12t-13 35q0 20 12 32t30 12q17 0 29-12t13-32q0-23-12-35t-30-12z"/><glyph unicode="&#192;" glyph-name="Agrave" horiz-adv-x="526" d="M188 388 146 265H380L338 388q-20 59-38 113T265 616h-4q-17-61-35-115T188 388zM8 0 240 659h46L518 0H470L393 226H132L54 0H8zM284 706 151 819l28 33L304 729l-20-23z"/><glyph unicode="&#193;" glyph-name="Aacute" horiz-adv-x="526" d="M188 388 146 265H380L338 388q-20 59-38 113T265 616h-4q-17-61-35-115T188 388zM8 0 240 659h46L518 0H470L393 226H132L54 0H8zM242 706l-20 23L347 852l28-33L242 706z"/><glyph unicode="&#194;" glyph-name="Acircumflex" horiz-adv-x="526" d="M188 388 146 265H380L338 388q-20 59-38 113T265 616h-4q-17-61-35-115T188 388zM8 0 240 659h46L518 0H470L393 226H132L54 0H8zM128 726 241 839h44L398 726l-20-19-113 98h-4L148 707l-20 19z"/><glyph unicode="&#195;" glyph-name="Atilde" horiz-adv-x="526" d="M188 388 146 265H380L338 388q-20 59-38 113T265 616h-4q-17-61-35-115T188 388zM8 0 240 659h46L518 0H470L393 226H132L54 0H8zM340 718q-29 0-49 12t-36 27-32 27-37 13q-22 0-37-20t-18-56l-33 3q2 47 24 78t64 32q29 0 49-12t36-27 32-27 37-13q22 0 36 21t19 56l33-3q-2-47-24-79t-64-32z"/><glyph unicode="&#196;" glyph-name="Adieresis" horiz-adv-x="526" d="M188 388 146 265H380L338 388q-20 59-38 113T265 616h-4q-17-61-35-115T188 388zM8 0 240 659h46L518 0H470L393 226H132L54 0H8zM165 725q-16 0-26 9t-10 27q0 17 10 27t26 10 26-10 11-27q0-17-10-26t-27-10zm196 0q-16 0-26 9t-11 27q0 17 10 27t27 10q16 0 26-10t10-27-10-26-26-10z"/><glyph unicode="&#197;" glyph-name="Aring" horiz-adv-x="526" d="M188 388 146 265H380L338 388q-20 59-38 113T265 616h-4q-17-61-35-115T188 388zM8 0 240 659h46L518 0H470L393 226H132L54 0H8zM263 7e2q-38 0-63 23t-25 62q0 40 25 63t63 23q36 0 62-23t26-63q0-38-26-61t-62-24zm0 26q23 0 39 15t17 44q0 29-16 44t-40 16q-24 0-41-15t-17-45q0-29 17-44t41-15z"/><glyph unicode="&#198;" glyph-name="AE" horiz-adv-x="809" d="M283 388 210 255H411V619h-4q-31-56-61-113T283 388zM21 0 386 659H752V619H457V370H702V330H457V40H762V0H411V217H189L70 0H21z"/><glyph unicode="&#199;" glyph-name="Ccedilla" horiz-adv-x="564" d="M331-12q-61 0-112 24T132 80 75 188 55 331q0 78 20 141t58 107 88 68 115 24q58 0 102-24t70-55l-27-31q-27 31-63 49t-81 19q-54 0-97-21t-74-59-47-94-16-124q0-69 16-124t46-95 72-60 96-22q51 0 91 20t76 61l27-29q-38-44-85-69T331-12zM262-219l-7 30q65 4 89 17t24 36q0 22-18 33T290-85L331 2h35L336-65q32-8 51-23t20-46q0-39-37-59T262-219z"/><glyph unicode="&#200;" glyph-name="Egrave" horiz-adv-x="515" d="M97 0V659H458V619H143V370H407V330H143V40H468V0H97zM303 706 170 819l28 33L323 729l-20-23z"/><glyph unicode="&#201;" glyph-name="Eacute" horiz-adv-x="515" d="M97 0V659H458V619H143V370H407V330H143V40H468V0H97zM261 706l-20 23L366 852l28-33L261 706z"/><glyph unicode="&#202;" glyph-name="Ecircumflex" horiz-adv-x="515" d="M97 0V659H458V619H143V370H407V330H143V40H468V0H97zm50 726L260 839h44L417 726l-20-19-113 98h-4L167 707l-20 19z"/><glyph unicode="&#203;" glyph-name="Edieresis" horiz-adv-x="515" d="M97 0V659H458V619H143V370H407V330H143V40H468V0H97zm87 725q-16 0-26 9t-10 27q0 17 10 27t26 10 26-10 11-27q0-17-10-26t-27-10zm196 0q-16 0-26 9t-11 27q0 17 10 27t27 10q16 0 26-10t10-27-10-26-26-10z"/><glyph unicode="&#204;" glyph-name="Igrave" horiz-adv-x="240" d="M97 0V659h46V0H97zm44 706L8 819l28 33L161 729l-20-23z"/><glyph unicode="&#205;" glyph-name="Iacute" horiz-adv-x="240" d="M97 0V659h46V0H97zm2 706-20 23L204 852l28-33L99 706z"/><glyph unicode="&#206;" glyph-name="Icircumflex" horiz-adv-x="240" d="M97 0V659h46V0H97zM-15 726 98 839h44L255 726l-20-19-113 98h-4L5 707-15 726z"/><glyph unicode="&#207;" glyph-name="Idieresis" horiz-adv-x="240" d="M97 0V659h46V0H97zM22 725q-16 0-26 9t-10 27q0 17 10 27t26 10 26-10 11-27q0-17-10-26T22 725zm196 0q-16 0-26 9t-11 27q0 17 10 27t27 10q16 0 26-10t10-27-10-26-26-10z"/><glyph unicode="&#208;" glyph-name="Eth" horiz-adv-x="625" d="M37 332v31l81 2V659H271q76 0 132-23t94-66 55-103 18-135q0-75-18-136T497 91 404 24 272 0H118V332H37zM164 39H266q67 0 115 21t80 61 46 92 15 119q0 64-15 117t-46 91-79 59-116 21H164V365H327V332H164V39z"/><glyph unicode="&#209;" glyph-name="Ntilde" horiz-adv-x="636" d="M97 0V659h48L423 194 497 63h4q-2 48-4 96t-2 96V659h44V0H491L213 465 139 596h-4q2-48 4-93t2-94V0H97zM4e2 718q-29 0-49 12t-36 27-32 27-37 13q-22 0-37-20t-18-56l-33 3q2 47 24 78t64 32q29 0 49-12t36-27 32-27 37-13q22 0 36 21t19 56l33-3q-2-47-24-79t-64-32z"/><glyph unicode="&#210;" glyph-name="Ograve" horiz-adv-x="652" d="M326-12q-59 0-109 24T131 82 75 190 55 332q0 78 20 140t56 107 86 68 109 24q60 0 110-23t86-68 56-107 20-141q0-78-20-141T522 82 436 13 326-12zm0 42q50 0 91 21t70 61 46 95 16 125q0 68-16 123t-45 93-71 60-91 21q-50 0-91-21t-71-59-45-94-16-123q0-69 16-124t45-95 70-61 92-22zm21 676L214 819l28 33L367 729l-20-23z"/><glyph unicode="&#211;" glyph-name="Oacute" horiz-adv-x="652" d="M326-12q-59 0-109 24T131 82 75 190 55 332q0 78 20 140t56 107 86 68 109 24q60 0 110-23t86-68 56-107 20-141q0-78-20-141T522 82 436 13 326-12zm0 42q50 0 91 21t70 61 46 95 16 125q0 68-16 123t-45 93-71 60-91 21q-50 0-91-21t-71-59-45-94-16-123q0-69 16-124t45-95 70-61 92-22zM305 706l-20 23L410 852l28-33L305 706z"/><glyph unicode="&#212;" glyph-name="Ocircumflex" horiz-adv-x="652" d="M326-12q-59 0-109 24T131 82 75 190 55 332q0 78 20 140t56 107 86 68 109 24q60 0 110-23t86-68 56-107 20-141q0-78-20-141T522 82 436 13 326-12zm0 42q50 0 91 21t70 61 46 95 16 125q0 68-16 123t-45 93-71 60-91 21q-50 0-91-21t-71-59-45-94-16-123q0-69 16-124t45-95 70-61 92-22zM191 726 304 839h44L461 726l-20-19-113 98h-4L211 707l-20 19z"/><glyph unicode="&#213;" glyph-name="Otilde" horiz-adv-x="652" d="M326-12q-59 0-109 24T131 82 75 190 55 332q0 78 20 140t56 107 86 68 109 24q60 0 110-23t86-68 56-107 20-141q0-78-20-141T522 82 436 13 326-12zm0 42q50 0 91 21t70 61 46 95 16 125q0 68-16 123t-45 93-71 60-91 21q-50 0-91-21t-71-59-45-94-16-123q0-69 16-124t45-95 70-61 92-22zm77 688q-29 0-49 12t-36 27-32 27-37 13q-22 0-37-20t-18-56l-33 3q2 47 24 78t64 32q29 0 49-12t36-27 32-27 37-13q22 0 36 21t19 56l33-3q-2-47-24-79t-64-32z"/><glyph unicode="&#214;" glyph-name="Odieresis" horiz-adv-x="652" d="M326-12q-59 0-109 24T131 82 75 190 55 332q0 78 20 140t56 107 86 68 109 24q60 0 110-23t86-68 56-107 20-141q0-78-20-141T522 82 436 13 326-12zm0 42q50 0 91 21t70 61 46 95 16 125q0 68-16 123t-45 93-71 60-91 21q-50 0-91-21t-71-59-45-94-16-123q0-69 16-124t45-95 70-61 92-22zM228 725q-16 0-26 9t-10 27q0 17 10 27t26 10 26-10 11-27q0-17-10-26t-27-10zm196 0q-16 0-26 9t-11 27q0 17 10 27t27 10q16 0 26-10t10-27-10-26-26-10z"/><glyph unicode="&#215;" glyph-name="multiply" horiz-adv-x="479" d="M78 135 52 163 213 330 52 497l26 28L239 356 401 525l26-28L266 330 427 163l-26-28L239 303 78 135z"/><glyph unicode="&#216;" glyph-name="Oslash" horiz-adv-x="652" d="M330-12q-54 0-99 20T150 65L84-23 56-1l70 94Q94 138 77 198T59 332q0 78 20 140t56 107 86 68 109 24q52 0 96-18t80-52l60 81 29-22-65-86q35-45 53-105t19-137q0-78-20-141T526 82 440 13 330-12zM107 332q0-61 12-111t36-89L478 565q-29 31-66 47t-82 17q-50 0-91-21t-71-59-45-94-16-123zM330 30q50 0 91 21t70 61 46 95 16 125q0 63-13 114t-39 89L177 101q29-34 67-52t86-19z"/><glyph unicode="&#217;" glyph-name="Ugrave" horiz-adv-x="634" d="M316-12q-42 0-82 12T163 43t-49 82T95 253V659h46V258q0-66 14-109t39-70 55-38 67-11q36 0 68 11t57 37 40 70 15 110V659h43V253q0-77-19-128T470 44 399 1 316-12zm22 718L205 819l28 33L358 729l-20-23z"/><glyph unicode="&#218;" glyph-name="Uacute" horiz-adv-x="634" d="M316-12q-42 0-82 12T163 43t-49 82T95 253V659h46V258q0-66 14-109t39-70 55-38 67-11q36 0 68 11t57 37 40 70 15 110V659h43V253q0-77-19-128T470 44 399 1 316-12zM296 706l-20 23L401 852l28-33L296 706z"/><glyph unicode="&#219;" glyph-name="Ucircumflex" horiz-adv-x="634" d="M316-12q-42 0-82 12T163 43t-49 82T95 253V659h46V258q0-66 14-109t39-70 55-38 67-11q36 0 68 11t57 37 40 70 15 110V659h43V253q0-77-19-128T470 44 399 1 316-12zM182 726 295 839h44L452 726l-20-19-113 98h-4L202 707l-20 19z"/><glyph unicode="&#220;" glyph-name="Udieresis" horiz-adv-x="634" d="M316-12q-42 0-82 12T163 43t-49 82T95 253V659h46V258q0-66 14-109t39-70 55-38 67-11q36 0 68 11t57 37 40 70 15 110V659h43V253q0-77-19-128T470 44 399 1 316-12zM219 725q-16 0-26 9t-10 27q0 17 10 27t26 10 26-10 11-27q0-17-10-26t-27-10zm196 0q-16 0-26 9t-11 27q0 17 10 27t27 10q16 0 26-10t10-27-10-26-26-10z"/><glyph unicode="&#221;" glyph-name="Yacute" horiz-adv-x="447" d="M2e2.0V267L3 659H52L152 453q17-36 33-71t37-71h4q19 36 37 71t34 71L397 659h47L246 267V0H2e2zm2 706-20 23L307 852l28-33L202 706z"/><glyph unicode="&#222;" glyph-name="Thorn" horiz-adv-x="563" d="M97 0V659h46V542H277q55 0 98-10t74-31 47-57 16-86q0-97-62-144T277 166H143V0H97zm46 205H266q101 0 150 36t49 117q0 82-49 113T266 503H143V205z"/><glyph unicode="&#223;" glyph-name="germandbls" horiz-adv-x="542" d="M367-12q-39 0-73 14T231 39l22 33q29-23 55-34t59-12q25 0 44 8t31 22 19 32 7 37q0 35-15 57t-39 37-50 28-51 29-38 38-16 59q0 36 15 62t34 49 33 48 16 59q0 44-23 72t-72 28q-57 0-91-42T136 517V0H92V532q0 93 46 145t125 52q33 0 58-10t44-29 27-42 10-53q0-39-15-66t-34-51-34-47-16-54q0-29 15-47t39-31 51-27 50-31 39-45 16-69q0-30-11-55T472 28 426-1 367-12z"/><glyph unicode="&#224;" glyph-name="agrave" horiz-adv-x="491" d="M197-12q-29 0-54 8T99 20 69 61 58 120q0 80 74 121t236 60q0 27-4 54t-17 49-35 35-58 14q-48 0-88-19t-65-37L81 430q13 9 31 20t42 20 50 15 56 7q42 0 71-14t47-40 26-58 8-73V0H374l-4 62h-3q-37-29-79-51T197-12zm8 38q42 0 80 20t83 58V267q-74-9-125-22t-82-31-44-41-14-51q0-26 8-44t22-29 32-17 40-6zm78 548L139 725l34 29L307 597l-24-23z"/><glyph unicode="&#225;" glyph-name="aacute" horiz-adv-x="491" d="M197-12q-29 0-54 8T99 20 69 61 58 120q0 80 74 121t236 60q0 27-4 54t-17 49-35 35-58 14q-48 0-88-19t-65-37L81 430q13 9 31 20t42 20 50 15 56 7q42 0 71-14t47-40 26-58 8-73V0H374l-4 62h-3q-37-29-79-51T197-12zm8 38q42 0 80 20t83 58V267q-74-9-125-22t-82-31-44-41-14-51q0-26 8-44t22-29 32-17 40-6zm20 548-24 23L335 754l34-29L225 574z"/><glyph unicode="&#226;" glyph-name="acircumflex" horiz-adv-x="491" d="M197-12q-29 0-54 8T99 20 69 61 58 120q0 80 74 121t236 60q0 27-4 54t-17 49-35 35-58 14q-48 0-88-19t-65-37L81 430q13 9 31 20t42 20 50 15 56 7q42 0 71-14t47-40 26-58 8-73V0H374l-4 62h-3q-37-29-79-51T197-12zm8 38q42 0 80 20t83 58V267q-74-9-125-22t-82-31-44-41-14-51q0-26 8-44t22-29 32-17 40-6zM116 593 233 737h42L392 593l-22-21L256 698h-4L138 572l-22 21z"/><glyph unicode="&#227;" glyph-name="atilde" horiz-adv-x="491" d="M197-12q-29 0-54 8T99 20 69 61 58 120q0 80 74 121t236 60q0 27-4 54t-17 49-35 35-58 14q-48 0-88-19t-65-37L81 430q13 9 31 20t42 20 50 15 56 7q42 0 71-14t47-40 26-58 8-73V0H374l-4 62h-3q-37-29-79-51T197-12zm8 38q42 0 80 20t83 58V267q-74-9-125-22t-82-31-44-41-14-51q0-26 8-44t22-29 32-17 40-6zM330 579q-29 0-48 15t-36 33-31 33-37 15q-27 0-39-27t-15-66l-34 2q1 24 6 46t15 40 27 29 41 11q28 0 47-15t36-33 32-33 37-15q26 0 38 27t15 66l34-2q-2-23-6-45t-15-41-27-29-40-11z"/><glyph unicode="&#228;" glyph-name="adieresis" horiz-adv-x="491" d="M197-12q-29 0-54 8T99 20 69 61 58 120q0 80 74 121t236 60q0 27-4 54t-17 49-35 35-58 14q-48 0-88-19t-65-37L81 430q13 9 31 20t42 20 50 15 56 7q42 0 71-14t47-40 26-58 8-73V0H374l-4 62h-3q-37-29-79-51T197-12zm8 38q42 0 80 20t83 58V267q-74-9-125-22t-82-31-44-41-14-51q0-26 8-44t22-29 32-17 40-6zM165 598q-16 0-26 10t-11 27q0 16 10 26t27 11q16 0 26-10t11-27q0-16-10-26t-27-11zm178 0q-16 0-26 10t-11 27q0 16 10 26t27 11q16 0 26-10t11-27q0-16-10-26t-27-11z"/><glyph unicode="&#229;" glyph-name="aring" horiz-adv-x="491" d="M197-12q-29 0-54 8T99 20 69 61 58 120q0 80 74 121t236 60q0 27-4 54t-17 49-35 35-58 14q-48 0-88-19t-65-37L81 430q13 9 31 20t42 20 50 15 56 7q42 0 71-14t47-40 26-58 8-73V0H374l-4 62h-3q-37-29-79-51T197-12zm8 38q42 0 80 20t83 58V267q-74-9-125-22t-82-31-44-41-14-51q0-26 8-44t22-29 32-17 40-6zm49 522q-42 0-69 26t-28 69q0 43 27 69t70 27q42 0 69-26t28-70q0-42-27-68t-70-27zm0 26q27 0 46 18t19 51q0 32-19 51t-46 19-46-19-19-51 19-50 46-19z"/><glyph unicode="&#230;" glyph-name="ae" horiz-adv-x="784" d="M205-12q-29 0-54 8T107 20 76 60 65 119q0 80 75 122t230 60q0 27-4 54t-16 49-35 35-58 14q-45 0-84-19t-64-37L89 430q13 9 31 20t40 20 48 15 53 7q59 0 93-32t47-88q26 55 69 87t98 33q85 0 131-58t47-164q0-9 0-18t-2-18H412q0-45 13-83t36-65 54-43 68-16q39 0 68 11t57 32l19-35q-14-9-29-17T665 3 626-8t-47-4q-32 0-58 8T474 19 437 51 407 87Q359 41 305 15T205-12zm7 38q19 0 42 6t46 18 47 29 44 40q-11 22-16 54t-5 67l-1 27q-70-9-119-21t-80-31-45-41-14-52q0-52 30-74t71-22zM412 268H705q0 93-36 139T567 454q-30 0-56-13t-47-38-34-59-18-76z"/><glyph unicode="&#231;" glyph-name="ccedilla" horiz-adv-x="449" d="M270-12q-47 0-86 17T115 54 69 132 52 239q0 60 18 107t48 80 69 49 84 17q50 0 83-18t58-41l-26-31q-23 22-51 36t-63 15q-37 0-68-15t-55-44-37-68-14-87q0-47 12-86t35-67 55-43 72-16q38 0 70 16t58 39l23-31Q392 24 354 6T270-12zM188-219l-7 30q65 4 89 17t24 36q0 22-18 33T216-85L257 2h35L262-65q32-8 51-23t20-46q0-39-37-59T188-219z"/><glyph unicode="&#232;" glyph-name="egrave" horiz-adv-x="483" d="M274-12q-46 0-86 17T117 54 70 133 52 239q0 59 17 106t47 79 67 50 78 18q86 0 135-58t49-164q0-9 0-18t-2-18H97q1-45 14-83t36-66 57-43 74-16q39 0 70 11t59 32l18-34Q396 18 362 3T274-12zM97 270H403q0 93-38 138T262 454q-31 0-59-12t-50-37-37-58-19-77zM290 574 146 725l34 29L314 597l-24-23z"/><glyph unicode="&#233;" glyph-name="eacute" horiz-adv-x="483" d="M274-12q-46 0-86 17T117 54 70 133 52 239q0 59 17 106t47 79 67 50 78 18q86 0 135-58t49-164q0-9 0-18t-2-18H97q1-45 14-83t36-66 57-43 74-16q39 0 70 11t59 32l18-34Q396 18 362 3T274-12zM97 270H403q0 93-38 138T262 454q-31 0-59-12t-50-37-37-58-19-77zM232 574l-24 23L342 754l34-29L232 574z"/><glyph unicode="&#234;" glyph-name="ecircumflex" horiz-adv-x="483" d="M274-12q-46 0-86 17T117 54 70 133 52 239q0 59 17 106t47 79 67 50 78 18q86 0 135-58t49-164q0-9 0-18t-2-18H97q1-45 14-83t36-66 57-43 74-16q39 0 70 11t59 32l18-34Q396 18 362 3T274-12zM97 270H403q0 93-38 138T262 454q-31 0-59-12t-50-37-37-58-19-77zm26 323L240 737h42L399 593l-22-21L263 698h-4L145 572l-22 21z"/><glyph unicode="&#235;" glyph-name="edieresis" horiz-adv-x="483" d="M274-12q-46 0-86 17T117 54 70 133 52 239q0 59 17 106t47 79 67 50 78 18q86 0 135-58t49-164q0-9 0-18t-2-18H97q1-45 14-83t36-66 57-43 74-16q39 0 70 11t59 32l18-34Q396 18 362 3T274-12zM97 270H403q0 93-38 138T262 454q-31 0-59-12t-50-37-37-58-19-77zm75 328q-16 0-26 10t-11 27q0 16 10 26t27 11q16 0 26-10t11-27q0-16-10-26t-27-11zm178 0q-16 0-26 10t-11 27q0 16 10 26t27 11q16 0 26-10t11-27q0-16-10-26t-27-11z"/><glyph unicode="&#236;" glyph-name="igrave" horiz-adv-x="229" d="M92 0V480h44V0H92zm51 574L-1 725l34 29L167 597l-24-23z"/><glyph unicode="&#237;" glyph-name="iacute" horiz-adv-x="229" d="M92 0V480h44V0H92zM85 574 61 597 195 754l34-29L85 574z"/><glyph unicode="&#238;" glyph-name="icircumflex" horiz-adv-x="229" d="M92 0V480h44V0H92zM-24 593 93 737h42L252 593l-22-21L116 698h-4L-2 572-24 593z"/><glyph unicode="&#239;" glyph-name="idieresis" horiz-adv-x="229" d="M92 0V480h44V0H92zM25 598Q9 598-1 608t-11 27q0 16 10 26t27 11q16 0 26-10t11-27q0-16-10-26T25 598zm178 0q-16 0-26 10t-11 27q0 16 10 26t27 11q16 0 26-10t11-27q0-16-10-26t-27-11z"/><glyph unicode="&#240;" glyph-name="eth" horiz-adv-x="535" d="M267-12q-40 0-77 16T124 49 78 122 60 219q0 49 15 90t42 71 66 45 84 17q43 0 81-19t67-57q-14 74-44 127t-72 95L157 515l-15 27 132 68q-28 24-59 44t-64 40l22 30q37-20 71-43t67-52l142 74 15-27-134-69q60-61 98-147t38-208q0-60-15-109T414 60 350 7 267-12zm0 39q41 0 70 17t49 48 29 71 10 88q0 32-3 62-19 28-38 46t-39 28-38 13-38 4q-41 0-71-15t-52-40-31-59-11-71q0-42 13-77t35-61 52-40 63-14z"/><glyph unicode="&#241;" glyph-name="ntilde" horiz-adv-x="532" d="M92 0V480h38l4-74h3q37 37 76 61t89 25q75 0 110-45t35-139V0H403V302q0 77-25 113t-85 37q-43 0-78-22t-79-68V0H92zM359 579q-29 0-48 15t-36 33-31 33-37 15q-27 0-39-27t-15-66l-34 2q1 24 6 46t15 40 27 29 41 11q28 0 47-15t36-33 32-33 37-15q26 0 38 27t15 66l34-2q-2-23-6-45t-15-41-27-29-40-11z"/><glyph unicode="&#242;" glyph-name="ograve" horiz-adv-x="535" d="M267-12q-43 0-82 17T117 54 70 132 52 239q0 60 17 107t47 80 69 49 82 17q43 0 82-17t69-49 47-79 18-108q0-60-17-106T419 54 350 5 267-12zm0 39q36 0 67 15t54 44 36 67 13 86-13 87-35 67-54 44-68 16-67-15-53-44-36-68-13-87q0-47 13-86t35-67 54-43 67-16zm29 547L152 725l34 29L320 597l-24-23z"/><glyph unicode="&#243;" glyph-name="oacute" horiz-adv-x="535" d="M267-12q-43 0-82 17T117 54 70 132 52 239q0 60 17 107t47 80 69 49 82 17q43 0 82-17t69-49 47-79 18-108q0-60-17-106T419 54 350 5 267-12zm0 39q36 0 67 15t54 44 36 67 13 86-13 87-35 67-54 44-68 16-67-15-53-44-36-68-13-87q0-47 13-86t35-67 54-43 67-16zM238 574l-24 23L348 754l34-29L238 574z"/><glyph unicode="&#244;" glyph-name="ocircumflex" horiz-adv-x="535" d="M267-12q-43 0-82 17T117 54 70 132 52 239q0 60 17 107t47 80 69 49 82 17q43 0 82-17t69-49 47-79 18-108q0-60-17-106T419 54 350 5 267-12zm0 39q36 0 67 15t54 44 36 67 13 86-13 87-35 67-54 44-68 16-67-15-53-44-36-68-13-87q0-47 13-86t35-67 54-43 67-16zM129 593 246 737h42L405 593l-22-21L269 698h-4L151 572l-22 21z"/><glyph unicode="&#245;" glyph-name="otilde" horiz-adv-x="535" d="M267-12q-43 0-82 17T117 54 70 132 52 239q0 60 17 107t47 80 69 49 82 17q43 0 82-17t69-49 47-79 18-108q0-60-17-106T419 54 350 5 267-12zm0 39q36 0 67 15t54 44 36 67 13 86-13 87-35 67-54 44-68 16-67-15-53-44-36-68-13-87q0-47 13-86t35-67 54-43 67-16zm76 552q-29 0-48 15t-36 33-31 33-37 15q-27 0-39-27t-15-66l-34 2q1 24 6 46t15 40 27 29 41 11q28 0 47-15t36-33 32-33 37-15q26 0 38 27t15 66l34-2q-2-23-6-45t-15-41-27-29-40-11z"/><glyph unicode="&#246;" glyph-name="odieresis" horiz-adv-x="535" d="M267-12q-43 0-82 17T117 54 70 132 52 239q0 60 17 107t47 80 69 49 82 17q43 0 82-17t69-49 47-79 18-108q0-60-17-106T419 54 350 5 267-12zm0 39q36 0 67 15t54 44 36 67 13 86-13 87-35 67-54 44-68 16-67-15-53-44-36-68-13-87q0-47 13-86t35-67 54-43 67-16zM178 598q-16 0-26 10t-11 27q0 16 10 26t27 11q16 0 26-10t11-27q0-16-10-26t-27-11zm178 0q-16 0-26 10t-11 27q0 16 10 26t27 11q16 0 26-10t11-27q0-16-10-26t-27-11z"/><glyph unicode="&#247;" glyph-name="divide" horiz-adv-x="479" d="M34 311v38H445V311H34zM239 109q-16 0-27 11t-11 30q0 17 11 28t27 11q17 0 27-11t11-28q0-19-10-30t-28-11zm0 360q-16 0-27 11t-11 30q0 17 11 28t27 11q17 0 27-11t11-28q0-19-10-30t-28-11z"/><glyph unicode="&#248;" glyph-name="oslash" horiz-adv-x="535" d="M267-12q-82 0-141 56L72-22 46-1l58 70q-24 32-38 74T52 239q0 60 17 107t47 80 69 49 82 17q40 0 76-14t66-42l54 65 26-21-58-69q24-32 38-75t14-97q0-60-17-106T419 54 350 5 267-12zM97 240q0-81 36-137L382 403q-46 51-115 51-36 0-67-15t-54-44-36-68-13-87zM267 26q36 0 67 15t55 44 36 67 13 86q0 82-36 138L153 76q47-50 114-50z"/><glyph unicode="&#249;" glyph-name="ugrave" horiz-adv-x="529" d="M230-12q-75 0-110 45T85 172V480h44V178q0-77 25-113t84-37q43 0 78 23t77 75V480h44V0H4e2l-5 80h-2q-35-42-74-67T230-12zm63 586L149 725l34 29L317 597l-24-23z"/><glyph unicode="&#250;" glyph-name="uacute" horiz-adv-x="529" d="M230-12q-75 0-110 45T85 172V480h44V178q0-77 25-113t84-37q43 0 78 23t77 75V480h44V0H4e2l-5 80h-2q-35-42-74-67T230-12zm5 586-24 23L345 754l34-29L235 574z"/><glyph unicode="&#251;" glyph-name="ucircumflex" horiz-adv-x="529" d="M230-12q-75 0-110 45T85 172V480h44V178q0-77 25-113t84-37q43 0 78 23t77 75V480h44V0H4e2l-5 80h-2q-35-42-74-67T230-12zM126 593 243 737h42L402 593l-22-21L266 698h-4L148 572l-22 21z"/><glyph unicode="&#252;" glyph-name="udieresis" horiz-adv-x="529" d="M230-12q-75 0-110 45T85 172V480h44V178q0-77 25-113t84-37q43 0 78 23t77 75V480h44V0H4e2l-5 80h-2q-35-42-74-67T230-12zM175 598q-16 0-26 10t-11 27q0 16 10 26t27 11q16 0 26-10t11-27q0-16-10-26t-27-11zm178 0q-16 0-26 10t-11 27q0 16 10 26t27 11q16 0 26-10t11-27q0-16-10-26t-27-11z"/><glyph unicode="&#253;" glyph-name="yacute" horiz-adv-x="436" d="M73-219q-27 0-49 10l10 39q8-3 18-5t21-3q45 0 75 36t48 91L209-9 12 480H60L176 178q11-30 24-66t28-68h4q11 32 22 68t22 66L379 480h45L234-60q-10-30-24-59t-34-51-45-35-58-14zM2e2 574l-24 23L310 754l34-29L2e2 574z"/><glyph unicode="&#254;" glyph-name="thorn" horiz-adv-x="544" d="M92-217V719h44V421q36 28 77 49t86 22q48 0 84-17t61-50 36-77 12-101q0-61-17-109T429 57 361 6 280-12q-35 0-70 15T136 46V-217H92zM278 27q36 0 67 16t53 45 34 69 13 90q0 44-8 82t-27 65-47 43-70 16q-36 0-74-20t-83-59V89q42-34 78-48t64-14z"/><glyph unicode="&#255;" glyph-name="ydieresis" horiz-adv-x="436" d="M73-219q-27 0-49 10l10 39q8-3 18-5t21-3q45 0 75 36t48 91L209-9 12 480H60L176 178q11-30 24-66t28-68h4q11 32 22 68t22 66L379 480h45L234-60q-10-30-24-59t-34-51-45-35-58-14zm67 817q-16 0-26 10t-11 27q0 16 10 26t27 11q16 0 26-10t11-27q0-16-10-26t-27-11zm178 0q-16 0-26 10t-11 27q0 16 10 26t27 11q16 0 26-10t11-27q0-16-10-26t-27-11z"/><glyph unicode="&#8211;" glyph-name="endash" horiz-adv-x="480" d="M40 232v36H440V232H40z"/><glyph unicode="&#8212;" glyph-name="emdash" horiz-adv-x="800" d="M40 232v36H760V232H40z"/><glyph unicode="&#8216;" glyph-name="quoteleft" horiz-adv-x="219" d="M102 480q-20 0-32 17T58 547q0 54 22 92t63 64l18-23q-33-27-50-54T94 556q2 1 8 1 15 0 27-9t13-28q0-19-11-29t-29-11z"/><glyph unicode="&#8217;" glyph-name="quoteright" horiz-adv-x="219" d="M76 477 58 5e2q33 27 50 54t17 70q-2-1-8-1-14 0-26 9T78 660q0 19 11 29t28 11q20 0 32-17t13-50q0-54-22-92T76 477z"/><glyph unicode="&#8218;" glyph-name="quotesinglbase" horiz-adv-x="219" d="M76-130 58-107q33 27 50 54t17 70q-2-1-8-1-14 0-26 9T78 53q0 19 11 29t28 11q20 0 32-17t13-50q0-54-22-92T76-130z"/><glyph unicode="&#8220;" glyph-name="quotedblleft" horiz-adv-x="360" d="M102 480q-20 0-32 17T58 547q0 54 22 92t63 64l18-23q-33-27-50-54T94 556q2 1 8 1 15 0 27-9t13-28q0-19-11-29t-29-11zm141 0q-20 0-32 17t-12 50q0 54 22 92t63 64l18-23q-33-27-50-54t-17-70q2 1 8 1 15 0 27-9t13-28q0-19-11-29t-29-11z"/><glyph unicode="&#8221;" glyph-name="quotedblright" horiz-adv-x="360" d="M76 477 58 5e2q33 27 50 54t17 70q-2-1-8-1-14 0-26 9T78 660q0 19 11 29t28 11q20 0 32-17t13-50q0-54-22-92T76 477zm141 0-18 23q33 27 50 54t17 70q-2-1-8-1-14 0-26 9t-13 28q0 19 11 29t28 11q20 0 32-17t13-50q0-54-22-92t-64-64z"/><glyph unicode="&#8222;" glyph-name="quotedblbase" horiz-adv-x="360" d="M76-130 58-107q33 27 50 54t17 70q-2-1-8-1-14 0-26 9T78 53q0 19 11 29t28 11q20 0 32-17t13-50q0-54-22-92T76-130zm141 0-18 23q33 27 50 54t17 70q-2-1-8-1-14 0-26 9T219 53q0 19 11 29t28 11q20 0 32-17t13-50q0-54-22-92t-64-64z"/><glyph unicode="&#8226;" glyph-name="bullet" horiz-adv-x="281" d="M140 154q-19 0-37 7T71 183 49 218t-9 46q0 25 8 45t23 35 32 22 37 8q19 0 37-8t33-22 22-34 9-46q0-26-8-46t-23-34-32-22-38-8z"/><glyph unicode="&#8249;" glyph-name="guilsinglleft" horiz-adv-x="259" d="M180 72 43 233v38L180 432l25-21L82 252 205 91 180 72z"/><glyph unicode="&#8250;" glyph-name="guilsinglright" horiz-adv-x="259" d="M78 72 54 91 176 252 54 411l24 21L216 271V233L78 72z"/></font>
</defs>
</svg>
