<svg xmlns="http://www.w3.org/2000/svg" width="191" height="191" fill="#fff" fill-rule="evenodd" xmlns:v="https://vecta.io/nano"><path d="M99.687 20.495c-.803-.128-1.296.258-1.58.617-.266.788-.498.714-1.086 1.214-2.28 1.94-1.002 10.024-.823 13.334l.142 1.397c.216.176.456-.16.413 1.07l-.554 2.696c-.27-.11-.484.368-.316-.194-.027 1.422-.657 3.14-.024 4.273.105.188.558.764.654.955.56 1.123-.612 1.81-.882 5.135-.257 3.15.953 8.16.51 12.27-.132 2.087-.06 4.932-.323 6.867-.165 1.21-2.36 2.667-4.29 2.525-.21-2.93.037-6.14.173-8.96.138-2.853-.492-5.89-.354-8.43-.462-.484-.272-.388-.402-1.73-.2-2.07-.647-7.66-.388-9.333.282-1.82.257-2.27-1.328-1.332-.16 2.563-.794 6.676-.767 9.2-.05 1.38-.065 2.076-.205 3.47.774.446 1.536 1.947.65 1.937.096.865-.4 2.087-.406 3.353.004 1.253-.043 2.5.103 3.745.295 2.523.116 3.144.008 5.555-.052 1.17-.087 1.086-.39 1.446-.182 1.502-.77 2.895-.498 4.754.523 3.574.477 2.032-.356 4.79-.49 1.62-.63 2.877-.9 4.667-.167 1.104-1.03 3.71-.817 4.666-.28 2.39-.14 1.725.125 3.878.114.927.04.837-.346 1.513-.413.723-.415.82-1.202 1.09-1.076 1.293.95 2.1-1.294 5.898-.852 1.443-.335-.298-1.015 2.535-.236.982-.398 2.15-.775 2.814-.327 1.98-1.608 4.47-2.286 6.105-.138 1.053-.89 1.217-1.12 2.2-.256 1.096.047 1.888-.54 2.755l-2.108 2.702c-.45.757-.1.626-.9.923l.03.13c-.058.203-.1.492-.225.695-.333.5-.27.298-.667.425l-.34.563c-.075.85-1.044 1.62-1.72 1.89-.37.16-.704.624-1.272 1.007-.485.328-1.02.755-1.497.97-.22.644-.663.585-1.196.994-.417.32-.958.68-1.347.814-.758.26-2.967.696-3.655.602-2.47 1.977-12.748-.077-15.316-.914-1.118-.364-1.774-1.113-2.63-1.8-.843-.666-.63-.447-.716-.91-1.46-.526-3.63-3.48-3.937-5.907-.388-3.073-.83-6.296-.56-9.447.102-.684-.393-2.588-.5-3.597-.18-1.707-.337-2.336.195-3.932.5-1.496.956-5.975.823-7.76.032-.825 1.2-6.082 2.08-6.69l.155-.867c.124-.825-.06-.912.542-1.282-.022-.7.673-2.608.858-3.445.168-.76.367-1.15.505-1.805.103-.49.203-1.442.39-1.782.156-3.314 2.568-4.7 3.462-10.9L48.332 67c.254-.924.3-.724.583-.862-.066-1.154.164-.12.342-.968.015-.767.36-1.06.648-1.643.11-.226.196-.482.347-.737.485-.82.17-.38.602-.474.076-.712.468-1.002.83-1.474l2.398-4.06c.644-1.167.703-2.03.616-3.828-.03-.627-.772-2.458-1.264-2.83-.584-.13-.333.052-.833-.395-.225-.2-.38-.44-.56-.767l-.066-.24c-.44-.23-.228.056-.775-.636-.5-.63-2.633-2.133-3.12-2.417-1.215-.705-.952-.474-1.224-1.082-.33-.253-3.446-.812-4.115-.795-1.314.033-3.39.32-4.2.843-.4.782-2.89 1.414-3.538 2.04-.46.445-.764 1.015-1.157 1.493-.533.647-.36.98-.603 1.488s-.088.145-.287.328c.147.715-.27 1.407-.244 2.45.02.733.157 1.557.3 2.245.578 2.992.1 1.615 1.303 3.674 1.094 1.87 1.125.99 1.138 3.913.004.92.092 1.583-.074 2.5-.267 1.492-.332 1.723-.747 1.727.055.736-.154 4.3-.267 5.09-.43 2.995-1.764 5.032-1.578 9.445.302 7.173-1.782 5.586-1.52 9.484.08 1.208.546 1.098.593 2.133.043.954-.39 1.358-.62 2.168-.522 1.86-.556 5.58-.558 7.667l-.006 1.436a9.22 9.22.0 01-.07.708c-.187.59.082.24-.365.612.2.4-.187 4.007.007 5.15.19 1.132.79 3.972.62 5.076.268.29.284-.37.438 1.508.052.64.093 1.196.176 1.83.5 3.832 2.023 5.363 2.87 8.893.245.277.3.427.294.786l.644.633c.7 1.046.205.677 1.086 1.74l1.997 2.273c.698.535.324-.074.73.703.605.075 1.614.762 2.16 1.08.393.23 1.757 1.132 2 1.182.593.157.996.35 1.505.483.756.197.88.093 1.472.66l5.112.655c1.397.143 4.67.16 6.072.036.89-.08 1.238-.303 2.496-.36 2.445-.114 7-1.615 7.375-1.605.218-.29-.034-.236.77-.545.25-.096.617-.2.88-.322.877-.4.74-.667 1.613-.886l.45-.616c.33-.324.334-.256.713-.536.586-.433.714-.652 1.218-1.096 1.2-1.058 1.743-2.012 2.512-2.3l-.07.095c.163-.575.9-1.472 1.542-2.428.525-.794 1.064-1.23 1.67-2.237 2.004-3.33 2.866-7.04 3.487-7.946.89-1.3.923-.527 1.326-2.645a31 31 0 01.73-3l.64-2.132c.194-.482.27-.506.632-.72 1.637-3.32 1.14-1.95 1.374-4.886.115-1.454.2-4.468.835-5.585.86-1.51.103-1.19.15-2.667.035-1.12.626-1.35.996-2.236.86-2.063-.35-3.228.916-5.365.08-1.487.44-3.366.198-5.03.001-1.03.47-2.642 1.504-1.125.392.518.8.666 1.227 1.09.45.444.82.882 1.278 1.282 1.42.212 1.74 5 2.088 5.854.344.84.42.442.64 1.008.64 1.64-1.413 1.348.04 4.788.673 1.593.295 7.434.3 9.4l-.1 18.95c.045 3.935-.13 1.413.797 4.07.242.694.37.758.892.91.55-.305.707-.86.858-1.438.202-.776.07-1.28.7-1.817.128-.662.486-3.37.457-4.224-.026-.782-.29-1.43-.272-2.337.022-1.02.46-1.075.596-1.97.112-.745-.093-1.708-.088-2.498.006-1.17.303-1.3.497-2.04.235-.893.11-3.822.11-4.926l.04-9.833c-.042-3.445-.3-6.476-.327-9.833-.016-2.004-.1-1.347.955-2.707.774-.998 2.693-.864 4.995-1.245 4.75-.786 3.868-.44 8.91.136 3.032.346 6.86-.212 9.883.17 1.344.17 2.894.474 4.147.794l2.97.796c.308.07.823-.074 1 .99l.003 5.184c.067 1.125.375 2.945.15 4.103-.128.657-.244.554-.45 1.138-.768 2.18-.433 10.787-.496 14.423-.033 1.893.516 1.48.64 2.51.103.856-.457 1.427-.558 2.323-.158 1.408.24 1.415.47 2.462.16.722.13 1.796.36 2.55l1.704 7.215c.32.183.454-.118.726 1.456.124.718.066 1.32.094 2.04.057 1.457.55 2.603.615 3.84-.008.708.194.303.285.998.59.104.26-.08 1.02 1.61.265.6.473 1.195.744 1.82.257.594.522 1.09.775 1.76.487 1.287.58.578.927 1.687l-.07.08c.6.244.068-.158.61.3l1.057 1.262c.568.67 1.156 1.11 1.514 1.89l-.015-.02c.464.16 1.804 1.673 3.304.357l1.042-1.297c.682-1.248-.112-4.427-.81-5.598-.603-1.01-1.24-1.928-1.705-2.923l-1.012-3.45c-.304-1.19-.76-2.38-1.024-3.747-.377-1.943-1.512-5.616-1.533-7.69.0-.25-.444-3.5-.478-5.354-.04-2.115-.393-3.784-.438-5.717-.05-2.074.218-3.795.33-5.726.57-9.77-1.467-20.68-.09-29.767.577-3.81.464-7.586.464-11.708.0-1.876-.132-4.263.026-6.078.08-.907.405-1.803.457-2.678.115-1.958-.956-2.22-.164-5.608.215-.918.05-1.832.314-2.757l.14-.572c.025-.197.023-.51.023-.713-.002-1.57-.152-2.984.06-4.6.114-.865.33-1.595.43-2.552.215-2.045 1.49-6.558 1.45-7.697.037-2.206 1.987-5.117.296-5.9-1.746-.798-2.796 1.954-3.896 2.352l-.065.49a11.26 11.26.0 01-.486 4.822c-.768 2.338-1.274 6.158-1.734 8.64-.143.77-.388 3.892-.97 4.418.054.527-.382 4.97-.5 5.543-.35 1.566-.506 9.743-.57 11.99-.053 1.864-.627 3.624-.477 5.538.046.04.116.032.137.116l.233.23c.147.207.122.23.228.494.1.274.338.75.355 1.126.025.547-.448 1.6-.652 2.067-1.256 2.873-.27 3.8-.94 4.47-.936.9-5.004-.142-5.968-.422-.938-.272-3.26-.28-4.832-.45-1.5-.163-1.13-.223-1.444-.533-1.272.063-3.468-.626-5.012-.717-1.066-.063-4.466-.44-5.143-.7-1.87-.158-9.506-1.574-10.698-2.718-1.718-1.648-.497-2.3-.022-3.086.227-.38.346-3.738.545-5.197.046-.335.13-.804.195-1.202l.384-1.152c.013-.85.24-1.66.293-2.692.088-1.694-.086-5.064.117-6.347.292-1.843 1.16-6.858 1.63-7.97.317-.75.608-1.605.86-2.377.22-.68.838-1.834.833-2.237-.015-.737.3-1.547.803-1.82-.06-.856.177-.757.545-1.577.094-.2.2-.543.33-.79.3-.587.14-.323.6-.665.402-.643.38-1.02.713-1.592.256-.444.238-.283.444-.774 1.24-2.96.704-2.46 1.072-5.4.176-1.408-.49-2.86-.963-3.914-.516-1.144-2.364-2.28-2.662-2.34-.727-.128-1.238-.615-1.835-.863-.685-.284-1.274-.26-2.1-.41-1.727-.313-3.08.278-4.794.16zm33.813 115.58c.104.415.686.255 1.136.19l.153-.26c.14-.635.505-1.683-.657-1.38-.6.154-.755.834-.632 1.448z"/><path d="M39.92 156.604v-5.23c0-.446.1-.777.3-1a1.01 1.01.0 01.79-.334c.34.0.6.1.8.334s.3.557.3 1v5.35c0 .608.068 1.117.205 1.524a1.76 1.76.0 00.722.95c.347.225.83.337 1.453.337.86.0 1.47-.228 1.826-.686s.534-1.152.534-2.08v-5.393c0-.448.1-.785.296-1.005s.463-.33.795-.33.597.1.803.33.3.557.3 1.005v5.23c0 .85-.084 1.562-.248 2.13a3.29 3.29.0 01-.939 1.499c-.395.365-.856.63-1.38.8s-1.137.25-1.838.25c-.836.0-1.555-.1-2.16-.27s-1.094-.46-1.474-.838-.66-.863-.84-1.453-.266-1.297-.266-2.117zm14.5-.152h-.772v3.5c0 .46-.1.798-.304 1.015s-.468.327-.793.327c-.352.0-.625-.114-.818-.342s-.3-.56-.3-1v-8.37c0-.474.106-.818.32-1.03s.557-.32 1.03-.32h3.583a10.73 10.73.0 011.27.063c.353.043.67.127.95.256a2.81 2.81.0 01.907.615 2.65 2.65.0 01.595.932 3.1 3.1.0 01.205 1.127c0 .8-.228 1.458-.686 1.945s-1.152.828-2.08 1.03c.4.208.765.514 1.122.92a9.45 9.45.0 01.952 1.294c.28.458.496.87.653 1.238s.233.62.233.76a.78.78.0 01-.137.425.94.94.0 01-.375.334 1.2 1.2.0 01-.55.12 1.07 1.07.0 01-.623-.175c-.17-.117-.312-.263-.433-.44l-.494-.785-.884-1.47c-.316-.537-.6-.947-.848-1.228s-.504-.476-.762-.58-.58-.154-.97-.154zm1.26-4.573h-2.033v2.993H55.6c.53.0.975-.046 1.337-.137s.636-.248.825-.47.286-.524.286-.9a1.4 1.4.0 00-.23-.8c-.152-.23-.365-.403-.638-.517-.256-.1-.762-.162-1.52-.162zm11.352 9.222h-3.325c-.48.0-.823-.106-1.028-.322s-.3-.56-.3-1.028v-8.18c0-.48.106-.823.316-1.033s.55-.316 1.02-.316h3.525c.52.0.97.033 1.35.096s.724.187 1.025.372a2.67 2.67.0 01.684.582 2.58 2.58.0 01.451.777 2.61 2.61.0 01.157.9c0 1.1-.544 1.887-1.633 2.4 1.43.456 2.145 1.34 2.145 2.656.0.608-.157 1.157-.468 1.643a2.78 2.78.0 01-1.261 1.079c-.332.14-.712.238-1.142.294s-.934.086-1.507.086zm-.165-4.83h-2.294v3.175h2.368c1.5.0 2.236-.537 2.236-1.6.0-.55-.192-.947-.58-1.195s-.962-.37-1.73-.37zm-2.294-4.4v2.8h2.02c.55.0.972-.053 1.27-.157s.53-.3.7-.593c.124-.208.185-.44.185-.696.0-.55-.195-.914-.587-1.094s-.988-.27-1.788-.27h-1.8zm15.12 8-.52-1.365h-4.42l-.52 1.393c-.203.544-.375.912-.52 1.1s-.377.286-.704.286c-.276.0-.522-.1-.734-.304s-.32-.433-.32-.7c0-.15.025-.304.073-.46l.246-.66 3.066-7.8a3.61 3.61.0 01.357-.709 1.45 1.45.0 01.496-.456c.206-.116.458-.175.76-.175.3.0.565.058.77.175a1.49 1.49.0 01.496.448 3.07 3.07.0 01.319.59l.33.84 2.84 7.017c.223.534.334.922.334 1.165.0.25-.104.484-.314.694a1.04 1.04.0 01-.762.314c-.172.0-.322-.03-.446-.094a.93.93.0 01-.311-.251c-.084-.106-.172-.27-.268-.5l-.25-.582zm-4.36-3.02h3.25l-1.638-4.482-1.6 4.482zm11.202-5.485 4.234 6.4v-6.472c0-.42.1-.734.27-.945a.91.91.0 01.729-.316c.314.0.565.104.747.314s.273.527.273.947v8.55c0 .955-.395 1.43-1.185 1.43-.198.0-.375-.028-.534-.086a1.35 1.35.0 01-.443-.268 2.59 2.59.0 01-.385-.435l-.357-.506-4.13-6.33v6.366c0 .415-.096.73-.3.942s-.443.32-.745.32c-.3.0-.562-.106-.75-.322s-.284-.53-.284-.94v-8.387c0-.357.04-.636.12-.838.094-.223.25-.405.47-.547s.453-.2.704-.2c.2.0.37.033.5.096a1.23 1.23.0 01.372.26 2.62 2.62.0 01.327.423l.347.542zm14.684.013v3.117h4.755v-3.117c0-.443.1-.777.3-1a1.01 1.01.0 01.79-.334c.33.0.598.1.803.33s.3.555.3 1.005v8.566c0 .45-.104.785-.3 1.008s-.476.334-.8.334c-.332.0-.597-.1-.795-.337s-.296-.56-.296-1.005V156.3h-4.755v3.656c0 .45-.104.785-.3 1.008s-.476.334-.8.334c-.332.0-.598-.1-.795-.337s-.296-.56-.296-1.005v-8.566c0-.446.1-.777.294-1s.46-.334.798-.334c.33.0.598.1.803.33s.3.557.3 1.005zm14.112-1.334c1.13.0 2.097.228 2.904.686a4.44 4.44.0 011.836 1.95c.415.843.623 1.833.623 2.97.0.84-.114 1.605-.342 2.292a4.95 4.95.0 01-1.023 1.788 4.48 4.48.0 01-1.676 1.157c-.663.267-1.42.4-2.276.4-.85.0-1.613-.137-2.284-.413s-1.233-.66-1.684-1.16-.8-1.1-1.02-1.803-.344-1.46-.344-2.276c0-.836.12-1.6.36-2.3s.588-1.3 1.043-1.78a4.49 4.49.0 011.66-1.122 5.98 5.98.0 012.223-.4zm3.13 5.6c0-.795-.13-1.486-.385-2.07s-.626-1.023-1.102-1.324-1.025-.448-1.643-.448c-.438.0-.846.083-1.218.248a2.68 2.68.0 00-.965.724c-.268.316-.48.722-.638 1.213s-.233 1.046-.233 1.66c0 .62.08 1.177.233 1.68a3.39 3.39.0 00.66 1.243 2.75 2.75.0 00.977.737c.37.165.772.246 1.213.246a2.99 2.99.0 001.555-.423c.475-.28.846-.717 1.127-1.307s.418-1.314.418-2.175zm4.132.972v-5.23c0-.446.1-.777.3-1a1.01 1.01.0 01.79-.334c.34.0.6.1.8.334s.3.557.3 1v5.35c0 .608.068 1.117.205 1.524a1.76 1.76.0 00.722.95c.347.225.83.337 1.453.337.86.0 1.47-.228 1.826-.686s.534-1.152.534-2.08v-5.393c0-.448.1-.785.296-1.005s.463-.33.795-.33.597.1.803.33.3.557.3 1.005v5.23c0 .85-.084 1.562-.248 2.13a3.29 3.29.0 01-.939 1.499c-.395.365-.856.63-1.38.8s-1.137.25-1.838.25c-.836.0-1.555-.1-2.16-.27s-1.094-.46-1.474-.838-.66-.863-.84-1.453-.266-1.297-.266-2.117zm19.794 1.236a3.18 3.18.0 01-.51 1.77c-.34.524-.833.934-1.486 1.23s-1.428.443-2.322.443c-1.074.0-1.96-.203-2.656-.605-.494-.3-.894-.68-1.203-1.167s-.463-.96-.463-1.42a.95.95.0 01.28-.686c.186-.192.42-.284.707-.284.233.0.428.073.588.223s.3.367.413.66c.137.344.3.636.448.866a1.83 1.83.0 00.68.577c.293.152.676.225 1.152.225.65.0 1.183-.152 1.6-.456s.613-.684.613-1.14c0-.362-.1-.656-.33-.88s-.506-.398-.856-.517-.815-.246-1.398-.38c-.78-.182-1.436-.398-1.96-.64s-.945-.58-1.253-1.003-.463-.947-.463-1.577a2.71 2.71.0 01.489-1.595c.327-.463.8-.82 1.418-1.07s1.345-.375 2.18-.375c.666.0 1.243.083 1.732.248s.9.387 1.213.66.554.562.704.863.223.598.223.884a1.05 1.05.0 01-.279.709.92.92.0 01-.694.314c-.253.0-.443-.063-.575-.187s-.273-.334-.425-.62c-.2-.4-.435-.732-.714-.962s-.722-.344-1.337-.344c-.567.0-1.028.124-1.375.375s-.524.55-.524.9c0 .218.058.405.177.565s.284.294.5.408a3.39 3.39.0 00.631.268l1.053.28 1.666.476a5.05 5.05.0 011.27.63 2.57 2.57.0 01.815.937c.195.38.294.843.294 1.393zm9.035-5.915h-4.963v2.674h4.57c.337.0.588.076.752.225a.77.77.0 01.248.595c0 .245-.08.448-.243.603s-.415.233-.757.233h-4.57v3.1h5.133c.347.0.608.08.782.24s.266.375.266.64c0 .256-.1.466-.266.625s-.435.24-.782.24h-5.986c-.48.0-.823-.106-1.033-.32s-.317-.557-.317-1.03v-8.18c0-.316.048-.575.142-.775s.24-.347.44-.438.456-.137.767-.137h5.816c.352.0.613.078.782.233s.256.362.256.613c0 .258-.086.466-.256.623s-.43.233-.782.233zm-76.86 17.518c0 .412-.107.784-.32 1.113s-.524.588-.935.774-.898.28-1.46.28c-.675.0-1.233-.127-1.67-.38a2.25 2.25.0 01-.757-.734c-.195-.304-.3-.604-.3-.894a.6.6.0 01.175-.432.59.59.0 01.444-.178.52.52.0 01.37.14 1.07 1.07.0 01.26.416 2.74 2.74.0 00.282.545 1.16 1.16.0 00.427.363c.185.094.425.142.725.142.4.0.744-.096 1-.287s.385-.43.385-.717c0-.228-.07-.413-.207-.553s-.32-.25-.538-.325a9.23 9.23.0 00-.879-.239c-.5-.115-.903-.25-1.233-.403a2 2 0 01-.788-.63c-.194-.265-.3-.596-.3-.992.0-.376.102-.7.307-1.003s.503-.516.892-.674.846-.236 1.37-.236c.42.0.782.053 1.1.156a2.19 2.19.0 01.763.416c.203.172.35.354.443.543a1.27 1.27.0 01.14.556.66.66.0 01-.175.446c-.116.132-.263.197-.436.197-.16.0-.28-.04-.362-.118s-.172-.2-.268-.4c-.126-.258-.274-.46-.45-.605s-.454-.217-.84-.217c-.357.0-.647.078-.865.236s-.33.346-.33.567c0 .137.037.255.112.355a.96.96.0 00.309.256 2.14 2.14.0 00.397.169l.663.177 1.048.3c.312.108.578.24.798.397s.4.352.513.6.185.53.185.876zm1.233 1.322v-5.388c0-.28.064-.5.2-.63a.64.64.0 01.495-.21c.207.0.376.07.505.207s.194.35.194.632v5.388c0 .284-.065.494-.194.634s-.298.2-.505.2c-.2.0-.363-.07-.492-.212s-.194-.352-.194-.632zm4.743-5.397 2.663 4.033v-4.07c0-.264.057-.462.17-.594s.266-.2.46-.2a.59.59.0 01.47.197c.115.132.172.33.172.596v5.38c0 .6-.248.9-.745.9a.97.97.0 01-.336-.054.85.85.0 01-.279-.169c-.088-.078-.167-.17-.242-.274l-.225-.32-2.598-3.982v4.004c0 .26-.06.46-.182.593a.61.61.0 01-.468.2c-.196.0-.354-.067-.472-.202s-.178-.333-.178-.6v-5.275a1.5 1.5.0 01.075-.527c.06-.14.158-.255.295-.344a.81.81.0 01.443-.132.77.77.0 01.32.06.76.76.0 01.234.164c.067.068.135.156.206.266l.218.34zm11.284 3.964c0 .218-.052.454-.16.707a2.52 2.52.0 01-.507.745c-.23.245-.524.443-.88.596s-.776.228-1.252.228a4.4 4.4.0 01-.984-.102 2.76 2.76.0 01-.804-.32 2.72 2.72.0 01-.666-.57 3.41 3.41.0 01-.462-.72 3.78 3.78.0 01-.287-.852 4.66 4.66.0 01-.096-.962c0-.55.08-1.043.24-1.478a3.14 3.14.0 01.688-1.118c.3-.3.648-.545 1.05-.707a3.42 3.42.0 011.284-.242c.554.0 1.046.1 1.48.33s.763.494.994.82.346.63.346.92c0 .16-.057.298-.17.42a.53.53.0 01-.406.182c-.177.0-.3-.043-.398-.126s-.188-.23-.296-.435c-.18-.34-.393-.593-.637-.76s-.545-.252-.903-.252c-.57.0-1.023.217-1.36.648s-.507 1.048-.507 1.845c0 .532.075.975.225 1.328s.36.616.634.792.594.26.962.26c.398.0.734-.1 1-.296s.483-.487.623-.87a1.47 1.47.0 01.22-.44c.088-.113.226-.17.42-.17a.58.58.0 01.425.174c.118.115.177.258.177.428zm5.75-3.6H94.44v1.682h2.875c.212.0.37.048.473.142s.156.22.156.374a.5.5.0 01-.153.379c-.104.097-.26.147-.476.147H94.44v1.95h3.23c.218.0.382.05.492.15a.52.52.0 01.167.403c0 .16-.056.293-.167.393s-.274.15-.492.15h-3.765c-.3.0-.518-.067-.65-.2s-.2-.35-.2-.648v-5.145c0-.2.03-.362.1-.487a.55.55.0 01.277-.275c.126-.057.287-.086.483-.086h3.66c.22.0.385.05.492.147s.16.228.16.386a.51.51.0 01-.161.392c-.107.097-.27.147-.492.147zm5.643 4.673h2.435c.244.0.428.05.556.15s.2.234.2.405a.55.55.0 01-.15.387c-.1.107-.255.158-.46.158h-3.436c-.234.0-.416-.064-.546-.193a.62.62.0 01-.196-.456c0-.112.04-.26.126-.444a1.65 1.65.0 01.275-.436l1.12-1.104.714-.604a3.98 3.98.0 00.637-.545c.17-.183.3-.368.4-.56s.132-.38.132-.562c0-.2-.048-.377-.142-.535s-.225-.28-.387-.366a1.13 1.13.0 00-.535-.13c-.408.0-.728.178-.96.537-.032.046-.085.174-.158.382s-.154.37-.247.48-.226.17-.403.17c-.156.0-.285-.053-.387-.155s-.154-.242-.154-.42a1.74 1.74.0 01.145-.671 1.91 1.91.0 01.432-.636c.2-.2.433-.343.728-.46s.64-.175 1.034-.175c.475.0.88.075 1.217.223a1.86 1.86.0 01.575.41 1.88 1.88.0 01.385.605 1.87 1.87.0 01.14.7 1.99 1.99.0 01-.287 1.053c-.2.315-.387.564-.586.742l-1 .843c-.468.382-.8.68-.964.9-.075.084-.15.186-.23.304zm8.773-2.257a8.01 8.01.0 01-.094 1.316 3.03 3.03.0 01-.346.999 2.31 2.31.0 01-.82.85 2.16 2.16.0 01-1.121.298c-.472.0-.897-.134-1.27-.4s-.656-.637-.847-1.1a4.23 4.23.0 01-.212-.857c-.046-.312-.067-.65-.067-1.015a9.68 9.68.0 01.075-1.268c.05-.376.127-.7.233-.972.183-.448.45-.788.8-1.023s.768-.352 1.254-.352a2.35 2.35.0 01.873.156 2 2 0 01.688.457 2.62 2.62.0 01.502.744c.237.513.355 1.24.355 2.177zm-1.28-.092c0-.57-.033-1.035-.102-1.397s-.185-.637-.346-.822-.387-.277-.672-.277c-.4.0-.696.207-.857.62s-.24 1.05-.24 1.9c0 .585.033 1.064.102 1.437s.185.656.346.847a.82.82.0 00.659.287.82.82.0 00.672-.298c.16-.2.274-.484.34-.854s.1-.855.1-1.456zm6.96.092a8.01 8.01.0 01-.094 1.316 3.03 3.03.0 01-.346.999 2.31 2.31.0 01-.82.85 2.16 2.16.0 01-1.121.298c-.472.0-.897-.134-1.27-.4s-.656-.637-.847-1.1a4.23 4.23.0 01-.212-.857c-.046-.312-.067-.65-.067-1.015a9.68 9.68.0 01.075-1.268c.05-.376.127-.7.233-.972.183-.448.45-.788.8-1.023s.768-.352 1.254-.352a2.35 2.35.0 01.873.156 2 2 0 01.688.457 2.62 2.62.0 01.502.744c.237.513.355 1.24.355 2.177zm-1.28-.092c0-.57-.033-1.035-.102-1.397s-.185-.637-.346-.822-.387-.277-.672-.277c-.4.0-.696.207-.857.62s-.24 1.05-.24 1.9c0 .585.033 1.064.102 1.437s.185.656.346.847a.82.82.0 00.659.287.82.82.0 00.672-.298c.16-.2.274-.484.34-.854s.1-.855.1-1.456zm3.464-.252a1.92 1.92.0 01.7-.56c.26-.12.527-.183.835-.183a2.02 2.02.0 01.82.166 1.96 1.96.0 01.658.471 2.15 2.15.0 01.435.72c.103.277.154.567.154.868.0.44-.1.838-.3 1.195a2.14 2.14.0 01-.84.838c-.36.2-.766.3-1.22.3-.522.0-.973-.127-1.352-.382s-.67-.632-.87-1.13-.3-1.1-.3-1.83c0-.588.06-1.113.182-1.577s.296-.847.522-1.152a2.23 2.23.0 01.827-.691 2.52 2.52.0 011.105-.233c.398.0.75.078 1.05.233s.532.35.686.578.23.45.23.66c0 .127-.05.244-.145.347a.48.48.0 01-.368.156.59.59.0 01-.363-.124c-.11-.084-.194-.196-.247-.343a.97.97.0 00-.341-.449c-.155-.113-.336-.17-.542-.17-.164.0-.328.048-.492.142a1.28 1.28.0 00-.412.385c-.228.33-.362.92-.4 1.765zm1.26 2.897a.96.96.0 00.781-.385c.206-.256.307-.593.307-1 0-.282-.048-.526-.145-.73s-.228-.36-.397-.467a1.02 1.02.0 00-.556-.161 1.07 1.07.0 00-.553.155 1.13 1.13.0 00-.425.444c-.108.194-.16.422-.16.683.0.42.108.77.326 1.05a1 1 0 00.822.421z" fill-rule="nonzero"/><path d="M95.702.385c52.396.0 94.872 42.476 94.872 94.872s-42.476 94.872-94.872 94.872S.83 147.654.83 95.258 43.305.385 95.702.385zm0 5.363c49.434.0 89.51 40.075 89.51 89.51s-40.075 89.51-89.51 89.51-89.51-40.075-89.51-89.51S46.267 5.75 95.702 5.75z"/></svg>